<?xml version="1.0" encoding="UTF-8" standalone="no"?>
<!-- Generator: Adobe Illustrator 19.0.0, SVG Export Plug-In . SVG Version: 6.00 Build 0)  -->

<svg
   version="1.1"
   id="Layer_1"
   x="0px"
   y="0px"
   viewBox="0 0 20 32.222195"
   xml:space="preserve"
   sodipodi:docname="fire-svgrepo-com.svg"
   width="20"
   height="32.222195"
   inkscape:version="1.1.1 (3bf5ae0d25, 2021-09-20)"
   xmlns:inkscape="http://www.inkscape.org/namespaces/inkscape"
   xmlns:sodipodi="http://sodipodi.sourceforge.net/DTD/sodipodi-0.dtd"
   xmlns="http://www.w3.org/2000/svg"
   xmlns:svg="http://www.w3.org/2000/svg"><defs
   id="defs1247" /><sodipodi:namedview
   id="namedview1245"
   pagecolor="#ffffff"
   bordercolor="#999999"
   borderopacity="1"
   inkscape:pageshadow="0"
   inkscape:pageopacity="0"
   inkscape:pagecheckerboard="true"
   showgrid="false"
   fit-margin-top="0"
   fit-margin-left="0"
   fit-margin-right="0"
   fit-margin-bottom="0"
   inkscape:zoom="9.6453784"
   inkscape:cx="6.6871404"
   inkscape:cy="10.730528"
   inkscape:window-width="2560"
   inkscape:window-height="1417"
   inkscape:window-x="1912"
   inkscape:window-y="-8"
   inkscape:window-maximized="1"
   inkscape:current-layer="Layer_1" />
<path
   style="fill:#ffb446;stroke-width:0.0629338"
   d="m 0,22.222194 c 0,5.522886 4.47718,10 10,10 v 0 c 5.52282,0 10,-4.477114 10,-10 0,-5.555548 -2.77777,-10 -0.91405,-13.8888712 0,0 -2.97488,0.5555801 -4.6415,4.9999682 0,0 -5.55555,-5.5555482 -3.23442,-13.333291 0,0 -5.65442,2.2221943 -5.06309,9.44442 0.50712,6.193068 -0.59133,7.222226 -0.59133,7.222226 C 5.55561,11.666677 1.646475,9.44442 1.646475,9.44442 2.777774,15.555549 0,17.222226 0,22.222194 Z"
   id="path1208" />
<path
   style="fill:#ffdc64;stroke-width:0.0629338"
   d="m 17.21826,24.590458 c 0,4.159487 -3.2117,7.710404 -7.37043,7.630163 C 5.9341,32.145231 3.02221,29.167448 3.33342,25.277696 3.47231,23.541602 4.79172,20.729089 6.9445,17.881898 l 1.43521,0.868047 C 8.33331,15.231502 10,10.55558 10,10.55558 c 1.0948,4.926651 7.21826,6.203641 7.21826,14.034878 z"
   id="path1210" />
<path
   style="fill:#ffffff;stroke-width:0.0629338"
   d="M 7.22223,21.111097 C 6.66665,24.444451 5.55555,25.658005 5.55555,27.777743 5.55555,30 7.54545,32.222194 10,32.222194 v 0 c 2.47229,0 4.45125,-2.019988 4.44439,-4.492281 -0.0186,-6.640025 -3.88881,-9.952107 -3.88881,-9.952107 0.55558,3.333354 -1.1111,4.999968 -1.1111,4.999968 C 8.7502,21.736471 7.22223,21.111097 7.22223,21.111097 Z"
   id="path1212" />
<g
   id="g1214"
   transform="translate(-97.103,0.001)">
</g>
<g
   id="g1216"
   transform="translate(-97.103,0.001)">
</g>
<g
   id="g1218"
   transform="translate(-97.103,0.001)">
</g>
<g
   id="g1220"
   transform="translate(-97.103,0.001)">
</g>
<g
   id="g1222"
   transform="translate(-97.103,0.001)">
</g>
<g
   id="g1224"
   transform="translate(-97.103,0.001)">
</g>
<g
   id="g1226"
   transform="translate(-97.103,0.001)">
</g>
<g
   id="g1228"
   transform="translate(-97.103,0.001)">
</g>
<g
   id="g1230"
   transform="translate(-97.103,0.001)">
</g>
<g
   id="g1232"
   transform="translate(-97.103,0.001)">
</g>
<g
   id="g1234"
   transform="translate(-97.103,0.001)">
</g>
<g
   id="g1236"
   transform="translate(-97.103,0.001)">
</g>
<g
   id="g1238"
   transform="translate(-97.103,0.001)">
</g>
<g
   id="g1240"
   transform="translate(-97.103,0.001)">
</g>
<g
   id="g1242"
   transform="translate(-97.103,0.001)">
</g>
</svg>
