<?xml version="1.0" encoding="UTF-8" standalone="no"?>
<!-- Created with Inkscape (http://www.inkscape.org/) -->

<svg
   width="117.06469mm"
   height="134.43951mm"
   viewBox="0 0 117.0647 134.43952"
   version="1.1"
   id="svg87282"
   inkscape:version="1.1.1 (3bf5ae0d25, 2021-09-20)"
   sodipodi:docname="flashIcon.svg"
   xmlns:inkscape="http://www.inkscape.org/namespaces/inkscape"
   xmlns:sodipodi="http://sodipodi.sourceforge.net/DTD/sodipodi-0.dtd"
   xmlns="http://www.w3.org/2000/svg"
   xmlns:svg="http://www.w3.org/2000/svg">
  <sodipodi:namedview
     id="namedview87284"
     pagecolor="#ffffff"
     bordercolor="#999999"
     borderopacity="1"
     inkscape:pageshadow="0"
     inkscape:pageopacity="0"
     inkscape:pagecheckerboard="0"
     inkscape:document-units="mm"
     showgrid="false"
     inkscape:lockguides="false"
     fit-margin-top="0"
     fit-margin-left="0"
     fit-margin-right="0"
     fit-margin-bottom="0"
     inkscape:snap-bbox="false"
     inkscape:snap-bbox-midpoints="false"
     inkscape:snap-midpoints="false"
     inkscape:snap-others="true"
     inkscape:snap-object-midpoints="true"
     inkscape:zoom="1.5554293"
     inkscape:cx="84.542576"
     inkscape:cy="169.40661"
     inkscape:window-width="2560"
     inkscape:window-height="1417"
     inkscape:window-x="1912"
     inkscape:window-y="-8"
     inkscape:window-maximized="1"
     inkscape:current-layer="layer1" />
  <defs
     id="defs87279" />
  <g
     inkscape:label="Layer 1"
     inkscape:groupmode="layer"
     id="layer1"
     transform="translate(-19.399767,-71.683842)">
    <path
       style="fill:#ff4242;fill-opacity:1;stroke:none;stroke-width:0.119888;stroke-linejoin:round;paint-order:stroke markers fill"
       d="m 63.430429,76.167598 v -4.483756 h 14.466846 14.466862 v 4.483756 4.483763 H 77.897275 63.430429 Z"
       id="path86270" />
    <circle
       style="fill:#ffffff;fill-opacity:1;stroke:none;stroke-width:0.129;stroke-linejoin:round;stroke-miterlimit:4;stroke-dasharray:none;stroke-opacity:1;paint-order:stroke markers fill"
       id="path11260"
       cx="77.897285"
       cy="147.60542"
       r="50.010307" />
    <path
       style="fill:#35ffbd;fill-opacity:1;stroke:none;stroke-width:0.273303;stroke-linejoin:round;paint-order:stroke markers fill"
       d="M 70.524617,205.76057 C 53.34779,203.42759 38.145683,193.86694 28.801593,179.52052 c -3.44516,-5.28952 -6.807902,-13.30513 -8.092618,-19.29003 -2.224219,-10.3611 -1.596585,-21.60555 1.747021,-31.3022 1.334186,-3.86927 2.777549,-7.08673 4.611845,-10.28029 1.307306,-2.27626 2.196846,-3.61678 4.749458,-7.15877 0.336137,-0.46659 0.04686,-0.81234 -4.375294,-5.23977 l -4.735301,-4.74021 4.500451,-4.500477 4.500475,-4.500451 4.729382,4.724476 4.729409,4.724472 2.502277,-1.7845 c 5.871901,-4.187672 11.426063,-6.882407 18.230711,-8.845044 9.775912,-2.819645 20.338602,-2.980241 30.335111,-0.461169 7.195433,1.813113 14.50024,5.268903 20.49917,9.697633 l 1.87329,1.38302 4.72425,-4.719344 4.72426,-4.719347 4.50045,4.500451 4.50047,4.50047 -4.71934,4.72426 -4.71935,4.72423 1.42642,1.92877 c 11.6167,15.70811 14.61405,36.61078 7.87224,54.89877 -7.60626,20.63304 -25.86122,35.11394 -47.881166,37.98214 -3.663586,0.4772 -10.971722,0.47376 -14.51045,-0.007 z m 11.832878,-12.55414 c 14.759655,-1.49867 27.611325,-9.70329 35.080085,-22.39561 6.73041,-11.43761 8.11644,-25.83077 3.6912,-38.33156 -6.49509,-18.34792 -23.666295,-30.5609 -42.993627,-30.57913 -9.406509,-0.009 -18.150956,2.61765 -25.748963,7.73404 -15.653165,10.54067 -23.259164,29.61146 -19.138154,47.98578 2.901226,12.9356 11.010269,23.74492 22.647064,30.18843 5.475146,3.03167 10.858528,4.63839 18.434785,5.502 1.719891,0.19482 5.563014,0.14544 8.02761,-0.10358 z"
       id="path86648" />
    <path
       style="fill:#ff4242;fill-opacity:1;stroke:none;stroke-width:0.273303;stroke-linejoin:round;paint-order:stroke markers fill"
       d="m 71.412528,168.66584 v -14.50772 l -9.635786,-0.0665 -9.635786,-0.0665 16.041312,-20.87475 16.041312,-20.87474 0.06658,14.46618 0.06658,14.4662 9.648437,0.0667 9.648433,0.0665 -15.893682,20.67526 c -8.741537,11.37141 -15.995294,20.78373 -16.119465,20.91628 -0.133166,0.14065 -0.226886,-5.77917 -0.226886,-14.26672 z"
       id="path86884" />
  </g>
</svg>
