<?xml version="1.0" encoding="UTF-8" standalone="no"?>
<!-- Generator: Adobe Illustrator 19.0.0, SVG Export Plug-In . SVG Version: 6.00 Build 0)  -->

<svg
   version="1.1"
   id="Layer_1"
   x="0px"
   y="0px"
   viewBox="0 0 459.863 429.57101"
   xml:space="preserve"
   sodipodi:docname="asdf.svg"
   width="459.86301"
   height="429.57101"
   inkscape:version="1.1.1 (3bf5ae0d25, 2021-09-20)"
   xmlns:inkscape="http://www.inkscape.org/namespaces/inkscape"
   xmlns:sodipodi="http://sodipodi.sourceforge.net/DTD/sodipodi-0.dtd"
   xmlns="http://www.w3.org/2000/svg"
   xmlns:svg="http://www.w3.org/2000/svg"><defs
   id="defs1532" /><sodipodi:namedview
   id="namedview1530"
   pagecolor="#ffffff"
   bordercolor="#999999"
   borderopacity="1"
   inkscape:pageshadow="0"
   inkscape:pageopacity="0"
   inkscape:pagecheckerboard="true"
   showgrid="false"
   lock-margins="true"
   fit-margin-top="0"
   fit-margin-left="0"
   fit-margin-right="0"
   fit-margin-bottom="0"
   inkscape:zoom="1.8983915"
   inkscape:cx="229.9315"
   inkscape:cy="214.65541"
   inkscape:window-width="2560"
   inkscape:window-height="1377"
   inkscape:window-x="1912"
   inkscape:window-y="-8"
   inkscape:window-maximized="1"
   inkscape:current-layer="Layer_1" />
<g
   id="g1497"
   style="fill:#b3b3b3;fill-opacity:1"
   transform="translate(0,-15.146)">
	<g
   id="g1495"
   style="fill:#b3b3b3;fill-opacity:1">
		<g
   id="g1493"
   style="fill:#b3b3b3;fill-opacity:1">
			<path
   d="m 395.988,193.977 c -18.629,24.992 -45.641,41.956 -77.406,44.25 26.626,31.04 43.84,70.378 47.152,113.55 1.243,16.197 0.369,24.083 -0.932,30.599 16.064,-2.497 30.815,-6.128 43.488,-10.794 42.626,-15.694 51.573,-38.891 51.573,-55.586 0,-50.475 -25.298,-95.147 -63.875,-122.019 z"
   id="path1485"
   style="fill:#b3b3b3;fill-opacity:1" />
			<path
   d="m 276.72,199.407 c 10.642,5.952 22.36,9.093 34.525,9.093 45.83,0 81.115,-44.3 81.115,-96.677 0,-52.382 -35.29,-96.677 -81.115,-96.677 -18.734,0 -36.411,7.436 -50.724,21.145 20.03,25.65 31.446,59.072 31.446,94.667 0,23.586 -5.006,47.079 -15.247,68.449 z"
   id="path1487"
   style="fill:#b3b3b3;fill-opacity:1" />
			<path
   d="m 259.999,226.279 c -24.558,31.058 -57.739,46.482 -91.839,46.482 -36.232,0 -68.69,-17.206 -91.839,-46.482 C 30.403,256.333 0,308.217 0,367.076 c 0,18.127 9.926,43.389 57.213,60.8 29.496,10.861 68.898,16.841 110.947,16.841 42.049,0 81.451,-5.98 110.947,-16.841 47.287,-17.411 57.213,-42.673 57.213,-60.8 0,-58.859 -30.402,-110.743 -76.321,-140.797 z"
   id="path1489"
   style="fill:#b3b3b3;fill-opacity:1" />
			<path
   d="m 168.16,242.763 c 53.003,0 93.806,-51.234 93.806,-111.804 0,-60.571 -40.808,-111.804 -93.806,-111.804 -52.995,0 -93.806,51.223 -93.806,111.804 0,60.582 40.815,111.804 93.806,111.804 z"
   id="path1491"
   style="fill:#b3b3b3;fill-opacity:1" />
		</g>
	</g>
</g>
<g
   id="g1499"
   transform="translate(0,-15.146)">
</g>
<g
   id="g1501"
   transform="translate(0,-15.146)">
</g>
<g
   id="g1503"
   transform="translate(0,-15.146)">
</g>
<g
   id="g1505"
   transform="translate(0,-15.146)">
</g>
<g
   id="g1507"
   transform="translate(0,-15.146)">
</g>
<g
   id="g1509"
   transform="translate(0,-15.146)">
</g>
<g
   id="g1511"
   transform="translate(0,-15.146)">
</g>
<g
   id="g1513"
   transform="translate(0,-15.146)">
</g>
<g
   id="g1515"
   transform="translate(0,-15.146)">
</g>
<g
   id="g1517"
   transform="translate(0,-15.146)">
</g>
<g
   id="g1519"
   transform="translate(0,-15.146)">
</g>
<g
   id="g1521"
   transform="translate(0,-15.146)">
</g>
<g
   id="g1523"
   transform="translate(0,-15.146)">
</g>
<g
   id="g1525"
   transform="translate(0,-15.146)">
</g>
<g
   id="g1527"
   transform="translate(0,-15.146)">
</g>
</svg>
