<?xml version="1.0" encoding="UTF-8" standalone="no"?>
<!-- Generator: Adobe Illustrator 19.0.0, SVG Export Plug-In . SVG Version: 6.00 Build 0)  -->

<svg
   version="1.1"
   id="Layer_1"
   x="0px"
   y="0px"
   viewBox="0 0 512 512"
   xml:space="preserve"
   sodipodi:docname="world-colored.svg"
   width="512"
   height="512"
   inkscape:version="1.1.1 (3bf5ae0d25, 2021-09-20)"
   xmlns:inkscape="http://www.inkscape.org/namespaces/inkscape"
   xmlns:sodipodi="http://sodipodi.sourceforge.net/DTD/sodipodi-0.dtd"
   xmlns="http://www.w3.org/2000/svg"
   xmlns:svg="http://www.w3.org/2000/svg"><defs
   id="defs89" /><sodipodi:namedview
   id="namedview87"
   pagecolor="#ffffff"
   bordercolor="#999999"
   borderopacity="1"
   inkscape:pageshadow="0"
   inkscape:pageopacity="0"
   inkscape:pagecheckerboard="true"
   showgrid="false"
   inkscape:zoom="1.7050781"
   inkscape:cx="256"
   inkscape:cy="255.70676"
   inkscape:window-width="1794"
   inkscape:window-height="1144"
   inkscape:window-x="2587"
   inkscape:window-y="90"
   inkscape:window-maximized="0"
   inkscape:current-layer="Layer_1"
   lock-margins="true"
   fit-margin-top="0"
   fit-margin-left="0"
   fit-margin-right="0"
   fit-margin-bottom="0" />
<path
   style="fill:#0600b9;fill-opacity:1"
   d="M 256,0 C 114.608,0 0,114.608 0,256 0,397.392 114.608,512 256,512 397.392,512 512,397.392 512,256 512,114.608 397.392,0 256,0 Z"
   id="path2" />
<path
   style="fill:#00da74;fill-opacity:1"
   d="m 212.256,44.736 c -2.112,-2.848 -6.256,-4.864 -10.56,-6.048 -6.944,-1.904 -14.304,-1.568 -14.144,1.2 -6.848,0 -9.728,2.672 -9.856,6.272 -0.272,7.296 10.928,18.4 24.176,18.832 19.776,0.64 13.92,-15.52 10.384,-20.256 z"
   id="path4" />
<path
   style="fill:#2e90d3"
   d="M 56.56,154.208 C 64.752,138.24 74.784,123.376 86.416,109.904"
   id="path6" />
<path
   style="fill:#00da74;fill-opacity:1"
   d="m 387.312,74.688 c -0.192,-0.144 -0.4,-0.272 -0.592,-0.416 -3.008,-2.176 -6.08,-4.272 -9.2,-6.304 -0.48,-0.304 -0.96,-0.608 -1.424,-0.912 -2.912,-1.856 -5.888,-3.648 -8.896,-5.376 -0.56,-0.32 -1.12,-0.656 -1.68,-0.96 -3.088,-1.744 -6.208,-3.392 -9.376,-4.992 -0.448,-0.224 -0.88,-0.464 -1.328,-0.688 -7.344,-3.632 -14.912,-6.88 -22.672,-9.696 -0.16,-0.064 -0.336,-0.112 -0.496,-0.16 -3.536,-1.28 -7.136,-2.464 -10.752,-3.552 -1.072,-0.32 -2.144,-0.608 -3.216,-0.912 -2.752,-0.784 -5.52,-1.536 -8.32,-2.224 -1.36,-0.336 -2.72,-0.64 -4.096,-0.944 -2.56,-0.576 -5.136,-1.12 -7.744,-1.6 -1.488,-0.272 -2.976,-0.544 -4.48,-0.8 -2.56,-0.432 -5.152,-0.8 -7.744,-1.136 -1.488,-0.192 -2.976,-0.4 -4.48,-0.576 -2.784,-0.304 -5.6,-0.544 -8.432,-0.736 -1.312,-0.096 -2.608,-0.224 -3.92,-0.304 C 264.336,32.144 260.192,32 256,32 c -4.688,0 -9.344,0.192 -13.968,0.48 -3.968,1.536 -11.12,5.312 -7.648,11.6 4.688,8.496 17.424,20.256 4.688,22.208 -12.736,1.952 -20.112,10.448 -31.504,10.448 -11.392,0 -40.224,-11.76 -41.552,-3.264 -1.344,8.496 -29.488,23.52 -36.192,22.864 -6.704,-0.656 -10.048,11.76 -28.16,11.76 -4.768,0 -10.048,0.736 -15.248,1.808 -11.632,13.472 -21.664,28.336 -29.856,44.304 2.752,0.848 5.904,1.104 9.568,0.272 17.44,-3.92 40.224,-27.44 56.304,-15.68 16.08,11.76 25.472,16.992 24.128,39.2 -1.344,22.208 -5.36,49.648 18.768,61.408 24.128,11.76 9.392,23.52 28.16,31.36 18.768,7.84 44.24,11.76 50.944,16.992 6.704,5.232 18.768,16.992 18.768,16.992 0,0 -17.424,19.6 -10.72,30.048 6.704,10.448 38.88,15.68 36.192,41.808 -2.688,26.128 -22.688,70.752 -22.688,79.888 0,9.136 -0.992,22.464 -0.992,22.464 0,0 30.832,-11.76 37.536,-24.832 6.704,-13.072 34.4,-50.08 42.448,-54 8.048,-3.92 32.176,-19.6 40.224,-35.28 8.048,-15.68 37.536,-33.968 8.048,-41.808 -29.488,-7.84 -32.176,-32.672 -54.96,-33.968 -22.784,-1.312 -16.752,-5.872 -32.176,-5.232 -15.424,0.64 -25.472,7.84 -32.176,9.152 -6.704,1.312 -15.424,-1.312 -16.752,-7.84 -1.328,-6.528 -8.048,-16.336 -12.736,-14.368 -4.688,1.952 6.704,-11.76 0,-13.072 -6.704,-1.312 -13.312,9.152 -20.4,9.152 -7.088,0 -7.76,-26.784 -7.76,-26.784 0,0 40.224,-4.576 42.224,0 2.016,4.576 12.064,15.024 15.424,9.792 3.36,-5.232 -6.704,-18.944 -4.688,-22.208 2.016,-3.264 46.928,-32.016 48.256,-43.776 1.328,-11.76 25.472,-10.448 24.128,-24.832 -1.344,-14.384 -14.752,-10.448 -16.752,-18.288 -2.016,-7.84 -10.72,-16.336 -17.424,-8.496 -1.472,1.712 -3.296,2.624 -5.232,3.184 2.848,-3.152 4.784,-6.176 4.56,-7.76 -0.672,-4.576 19.44,-15.68 23.456,-20.912 4.016,-5.232 -25.472,-22.208 -36.864,-26.128 -6.992,-2.4 -13.712,-2.832 -17.872,-2.816 -0.48,-7.664 0.064,-15.168 4.464,-18.736 8.048,-6.528 15.424,11.104 21.456,11.104 6.032,0 27.488,0.656 32.176,7.184 4.688,6.528 13.408,15.68 13.408,21.552 0,5.872 8.048,45.072 26.816,41.152 18.768,-3.92 19.44,-15.68 28.16,-18.288 8.72,-2.608 17.424,7.184 34.192,3.264 0,0 -1.28,-2.912 -4.416,-7.744 C 418.96,101.184 404,86.816 387.312,74.688 Z M 277.28,95.04 c -0.032,-0.384 -0.096,-0.864 -0.128,-1.28 2.448,0.96 4.864,1.744 6.832,1.936 6.704,0.656 9.392,16.336 -4.016,26.128 -10.064,7.344 -5.36,15.584 -0.16,20.512 -3.024,4.496 -6.448,9.36 -11.232,8.896 -6.704,-0.656 -20.112,-7.84 -24.128,-13.712 -4.016,-5.872 8.048,-22.208 16.08,-27.44 8.048,-5.248 17.424,-5.248 16.752,-15.04 z"
   id="path8" />
<g
   id="g54">
	<path
   style="fill:#32bea6"
   d="m 317.664,40.704 c 1.072,0.304 2.144,0.592 3.216,0.912 -1.072,-0.32 -2.144,-0.608 -3.216,-0.912 z"
   id="path10" />
	<path
   style="fill:#32bea6"
   d="m 280.816,33.408 c 1.504,0.16 2.992,0.368 4.48,0.576 -1.504,-0.208 -2.992,-0.416 -4.48,-0.576 z"
   id="path12" />
	<path
   style="fill:#32bea6"
   d="m 305.248,37.52 c 1.376,0.304 2.736,0.608 4.096,0.944 -1.36,-0.336 -2.736,-0.64 -4.096,-0.944 z"
   id="path14" />
	<path
   style="fill:#32bea6"
   d="m 376.08,67.056 c 0.48,0.304 0.96,0.608 1.424,0.912 -0.464,-0.304 -0.944,-0.608 -1.424,-0.912 z"
   id="path16" />
	<path
   style="fill:#32bea6"
   d="m 386.72,74.272 c 0.192,0.144 0.4,0.272 0.592,0.416 -0.192,-0.144 -0.4,-0.272 -0.592,-0.416 z"
   id="path18" />
	<path
   style="fill:#32bea6"
   d="m 331.632,45.168 c 0.16,0.064 0.336,0.112 0.496,0.16 -0.16,-0.048 -0.336,-0.096 -0.496,-0.16 z"
   id="path20" />
	<path
   style="fill:#32bea6"
   d="m 268.464,32.368 c 1.312,0.08 2.608,0.208 3.92,0.304 -1.312,-0.096 -2.608,-0.24 -3.92,-0.304 z"
   id="path22" />
	<path
   style="fill:#32bea6"
   d="m 293.04,35.12 c 1.504,0.256 2.992,0.528 4.48,0.8 -1.504,-0.288 -2.992,-0.544 -4.48,-0.8 z"
   id="path24" />
	<path
   style="fill:#32bea6"
   d="m 354.8,55.04 c 0.448,0.224 0.88,0.464 1.328,0.688 -0.432,-0.24 -0.88,-0.48 -1.328,-0.688 z"
   id="path26" />
	<path
   style="fill:#32bea6"
   d="m 365.52,60.704 c 0.56,0.32 1.12,0.64 1.68,0.96 -0.56,-0.32 -1.12,-0.64 -1.68,-0.96 z"
   id="path28" />
	<path
   style="fill:#32bea6"
   d="m 387.312,74.688 c 16.688,12.128 31.632,26.496 44.416,42.656 v 0 C 418.944,101.184 404,86.816 387.312,74.688 Z"
   id="path30" />
	<path
   style="fill:#32bea6"
   d="m 332.128,45.344 c 7.776,2.816 15.328,6.064 22.672,9.696 -7.344,-3.632 -14.912,-6.88 -22.672,-9.696 z"
   id="path32" />
	<path
   style="fill:#32bea6"
   d="m 256,32 c 4.192,0 8.336,0.144 12.464,0.368 C 264.336,32.144 260.192,32 256,32 Z"
   id="path34" />
	<path
   style="fill:#32bea6"
   d="m 367.2,61.68 c 3.008,1.728 5.968,3.52 8.896,5.376 -2.928,-1.856 -5.888,-3.648 -8.896,-5.376 z"
   id="path36" />
	<path
   style="fill:#32bea6"
   d="m 377.52,67.968 c 3.12,2.032 6.192,4.128 9.2,6.304 -3.008,-2.176 -6.08,-4.272 -9.2,-6.304 z"
   id="path38" />
	<path
   style="fill:#32bea6"
   d="m 256,32 c -4.688,0 -9.344,0.192 -13.968,0.48 v 0 C 246.656,32.192 251.312,32 256,32 Z"
   id="path40" />
	<path
   style="fill:#32bea6"
   d="m 356.144,55.712 c 3.168,1.6 6.304,3.248 9.376,4.992 -3.088,-1.728 -6.208,-3.392 -9.376,-4.992 z"
   id="path42" />
	<path
   style="fill:#32bea6"
   d="m 285.28,33.984 c 2.592,0.336 5.184,0.704 7.744,1.136 -2.56,-0.432 -5.136,-0.8 -7.744,-1.136 z"
   id="path44" />
	<path
   style="fill:#32bea6"
   d="m 320.88,41.616 c 3.616,1.104 7.216,2.272 10.752,3.552 -3.536,-1.28 -7.136,-2.448 -10.752,-3.552 z"
   id="path46" />
	<path
   style="fill:#32bea6"
   d="m 272.384,32.672 c 2.816,0.208 5.632,0.432 8.432,0.736 -2.8,-0.304 -5.616,-0.544 -8.432,-0.736 z"
   id="path48" />
	<path
   style="fill:#32bea6"
   d="m 297.504,35.92 c 2.592,0.496 5.168,1.024 7.744,1.6 -2.56,-0.576 -5.136,-1.12 -7.744,-1.6 z"
   id="path50" />
	<path
   style="fill:#32bea6"
   d="m 309.344,38.464 c 2.8,0.688 5.568,1.44 8.32,2.224 -2.752,-0.784 -5.52,-1.536 -8.32,-2.224 z"
   id="path52" />
</g>
<g
   id="g56">
</g>
<g
   id="g58">
</g>
<g
   id="g60">
</g>
<g
   id="g62">
</g>
<g
   id="g64">
</g>
<g
   id="g66">
</g>
<g
   id="g68">
</g>
<g
   id="g70">
</g>
<g
   id="g72">
</g>
<g
   id="g74">
</g>
<g
   id="g76">
</g>
<g
   id="g78">
</g>
<g
   id="g80">
</g>
<g
   id="g82">
</g>
<g
   id="g84">
</g>
</svg>
