<?xml version="1.0" encoding="UTF-8" standalone="no"?>
<!-- Created with Inkscape (http://www.inkscape.org/) -->

<svg
   width="35.314663mm"
   height="40.393959mm"
   viewBox="0 0 35.314663 40.393959"
   version="1.1"
   id="svg43861"
   inkscape:version="1.1.1 (3bf5ae0d25, 2021-09-20)"
   sodipodi:docname="greyredicon.svg"
   inkscape:export-filename="E:\MyDocuments\BreathHoldTracker\public\images\greyredicon.png"
   inkscape:export-xdpi="39.189999"
   inkscape:export-ydpi="39.189999"
   xmlns:inkscape="http://www.inkscape.org/namespaces/inkscape"
   xmlns:sodipodi="http://sodipodi.sourceforge.net/DTD/sodipodi-0.dtd"
   xmlns:xlink="http://www.w3.org/1999/xlink"
   xmlns="http://www.w3.org/2000/svg"
   xmlns:svg="http://www.w3.org/2000/svg">
  <sodipodi:namedview
     id="namedview43863"
     pagecolor="#ffffff"
     bordercolor="#999999"
     borderopacity="1"
     inkscape:pageshadow="0"
     inkscape:pageopacity="0"
     inkscape:pagecheckerboard="true"
     inkscape:document-units="mm"
     showgrid="false"
     fit-margin-top="0"
     fit-margin-left="0"
     fit-margin-right="0"
     fit-margin-bottom="0"
     inkscape:zoom="3.1108586"
     inkscape:cx="57.058203"
     inkscape:cy="91.132397"
     inkscape:window-width="2560"
     inkscape:window-height="1417"
     inkscape:window-x="1912"
     inkscape:window-y="-8"
     inkscape:window-maximized="1"
     inkscape:current-layer="layer1" />
  <defs
     id="defs43858">
    <linearGradient
       inkscape:collect="always"
       xlink:href="#linearGradient16056"
       id="linearGradient28587"
       gradientUnits="userSpaceOnUse"
       gradientTransform="matrix(0.75606345,0,0,0.75606345,-53.371456,-365.4153)"
       x1="187.20129"
       y1="674.54993"
       x2="238.3625"
       y2="674.54993" />
    <linearGradient
       id="linearGradient16056"
       inkscape:swatch="solid">
      <stop
         style="stop-color:#ff4242;stop-opacity:1;"
         offset="0"
         id="stop16054" />
    </linearGradient>
  </defs>
  <g
     inkscape:label="Layer 1"
     inkscape:groupmode="layer"
     id="layer1"
     transform="translate(-89.868937,-124.4518)">
    <path
       style="display:inline;fill:#ff4242;fill-opacity:1;stroke:none;stroke-width:2.32087;stroke-linejoin:round;stroke-miterlimit:4;stroke-dasharray:none;stroke-opacity:1;paint-order:stroke markers fill"
       d="m 105.70267,153.57353 v -4.34401 l -2.88523,-0.02 -2.885227,-0.02 4.803227,-6.25049 4.80322,-6.25046 0.02,4.33155 0.02,4.3316 2.88901,0.02 2.88902,0.02 -4.75902,6.19079 c -2.61746,3.40488 -4.78944,6.22324 -4.82663,6.26289 -0.0398,0.042 -0.0679,-1.73042 -0.0679,-4.27185 z"
       id="path86884-9"
       inkscape:export-filename="E:\MyDocuments\BreathHoldTracker\public\images\newlogo.png"
       inkscape:export-xdpi="39.189999"
       inkscape:export-ydpi="39.189999" />
    <path
       id="path86270-1"
       style="display:inline;fill:url(#linearGradient28587);fill-opacity:1;stroke:none;stroke-width:3.79075;stroke-linejoin:round;stroke-miterlimit:4;stroke-dasharray:none;stroke-opacity:1;paint-order:stroke markers fill"
       d="m 103.16321,124.4518 v 1.34231 1.34378 h 4.33113 0.53128 3.80132 v -1.34378 -1.34231 h -4.3326 z m 4.05794,5.21418 c -1.53075,0.0231 -3.05359,0.24532 -4.51718,0.66747 -2.03751,0.58771 -3.699629,1.39524 -5.457838,2.64917 l -0.750159,0.53455 -1.416137,-1.41466 -1.416145,-1.41466 -1.346738,1.34674 -1.348212,1.34821 1.419094,1.4191 c 1.323806,1.32577 1.410464,1.42998 1.309818,1.56972 -0.764321,1.06058 -1.030611,1.46107 -1.422048,2.14265 -0.549244,0.95623 -0.981205,1.92037 -1.3807,3.07891 -1.001174,2.90343 -1.190218,6.27012 -0.524226,9.37253 0.384685,1.79205 1.39167,4.1915 2.423244,5.77533 2.79788,4.29571 7.349547,7.1589 12.492767,7.85744 1.0596,0.14402 3.24891,0.1443 4.34588,0.002 6.59341,-0.85885 12.05963,-5.19386 14.33715,-11.37197 2.0187,-5.47594 1.1201,-11.735 -2.35827,-16.43846 l -0.42675,-0.57741 1.41318,-1.41466 1.41319,-1.41466 -1.34821,-1.34821 -1.34674,-1.34674 -1.41467,1.41319 -1.41466,1.41319 -0.56115,-0.41495 c -1.79624,-1.32608 -3.98259,-2.36026 -6.1371,-2.90318 -1.49661,-0.37716 -3.03665,-0.55338 -4.56739,-0.53012 z m 0.34554,3.83348 c 5.78716,0.005 10.92747,3.66304 12.87227,9.15694 1.32504,3.74309 0.91072,8.05206 -1.10456,11.47679 -2.23635,3.80042 -6.08421,6.2569 -10.50366,6.70565 v 0.002 c -0.73798,0.0743 -1.88907,0.0877 -2.40405,0.0294 -2.26855,-0.25861 -3.88043,-0.73874 -5.51985,-1.6465 -3.48438,-1.92937 -5.912236,-5.16693 -6.780944,-9.04027 -1.23395,-5.50178 1.042536,-11.21202 5.729539,-14.36817 2.275055,-1.53203 4.894675,-2.3181 7.711255,-2.31544 z"
       sodipodi:nodetypes="cccccccccccccccccccccsssccscccccccccccccssccccsccc"
       inkscape:export-filename="E:\MyDocuments\BreathHoldTracker\public\images\newlogo.png"
       inkscape:export-xdpi="39.189999"
       inkscape:export-ydpi="39.189999" />
    <path
       style="fill:#b3b3b3;fill-opacity:1;stroke:#b3b3b3;stroke-width:1.51181;stroke-linejoin:round;stroke-miterlimit:4;stroke-dasharray:none;stroke-opacity:1;paint-order:stroke markers fill"
       d="M 65.255296,158.7698 C 53.679884,157.28101 41.291739,151.98942 32.167614,144.63639 28.755196,141.88637 23.436193,136.53131 21.170175,133.56441 14.685399,125.0739 10.05243,114.48483 8.1606019,103.82986 7.4218026,99.66886 7.3120861,87.841389 7.9734912,83.659257 9.5789282,73.507912 13.386001,63.931806 19.159272,55.52314 c 1.308005,-1.905085 2.37819,-3.623059 2.37819,-3.817721 0,-0.194662 -2.310835,-2.691667 -5.13519,-5.548901 l -5.13519,-5.194971 4.974581,-4.966814 4.974581,-4.966815 5.272466,5.265202 5.272466,5.265203 4.302587,-2.870522 c 8.680926,-5.791581 16.463009,-8.954274 26.47681,-10.76036 4.689532,-0.845803 14.883222,-1.015741 19.75182,-0.329281 10.542733,1.486499 21.311187,5.874062 30.261647,12.329987 1.17389,0.846728 2.25721,1.539504 2.40736,1.539504 0.15015,0 2.62576,-2.349518 5.50136,-5.221151 l 5.22835,-5.221152 4.89853,4.898528 4.89853,4.898528 -5.22115,5.228355 c -2.87164,2.875596 -5.22116,5.348899 -5.22116,5.496231 0,0.147332 0.84025,1.447626 1.86722,2.889544 7.12328,10.001454 11.03923,20.420571 12.26427,32.631374 1.38851,13.840312 -2.07911,28.779042 -9.40929,40.535732 -3.97042,6.36806 -10.62415,13.75259 -16.13384,17.90585 -9.57951,7.22116 -21.302437,11.9677 -32.788372,13.2758 -3.366415,0.3834 -12.560192,0.37426 -15.590552,-0.0155 z m 18.483643,-14.7446 c 10.638723,-2.29474 18.850301,-6.74636 26.366501,-14.29369 8.77869,-8.81503 13.49274,-18.67077 14.92584,-31.205656 C 127.5659,76.35627 114.66985,54.190728 94.186216,45.509829 81.927253,40.314519 69.245423,39.817523 56.539928,44.034488 39.37314,49.732159 26.388849,64.509017 22.499367,82.774575 c -0.982878,4.615736 -1.220174,12.925368 -0.507315,17.765115 2.332547,15.8361 11.437294,29.3389 25.31059,37.53688 5.218035,3.08343 10.593249,5.00528 17.470472,6.24638 4.862783,0.87756 14.196245,0.73103 18.965825,-0.29775 z"
       id="path1285"
       transform="matrix(0.26458333,0,0,0.26458333,88.079828,122.55642)" />
  </g>
</svg>
