<?xml version="1.0" encoding="UTF-8" standalone="no"?>
<!-- Created with Inkscape (http://www.inkscape.org/) -->

<svg
   width="56.727798mm"
   height="36.773968mm"
   viewBox="0 0 56.727798 36.773968"
   version="1.1"
   id="svg5"
   inkscape:version="1.1.1 (3bf5ae0d25, 2021-09-20)"
   sodipodi:docname="holditLogoColor.svg"
   xmlns:inkscape="http://www.inkscape.org/namespaces/inkscape"
   xmlns:sodipodi="http://sodipodi.sourceforge.net/DTD/sodipodi-0.dtd"
   xmlns="http://www.w3.org/2000/svg"
   xmlns:svg="http://www.w3.org/2000/svg">
  <sodipodi:namedview
     id="namedview7"
     pagecolor="#ffffff"
     bordercolor="#999999"
     borderopacity="1"
     inkscape:pageshadow="0"
     inkscape:pageopacity="0"
     inkscape:pagecheckerboard="0"
     inkscape:document-units="mm"
     showgrid="false"
     inkscape:zoom="3.5738276"
     inkscape:cx="68.973668"
     inkscape:cy="80.16615"
     inkscape:window-width="2560"
     inkscape:window-height="1417"
     inkscape:window-x="1912"
     inkscape:window-y="-8"
     inkscape:window-maximized="1"
     inkscape:current-layer="layer17"
     inkscape:object-nodes="false"
     inkscape:snap-object-midpoints="false"
     fit-margin-top="0"
     fit-margin-left="0"
     fit-margin-right="0"
     fit-margin-bottom="0" />
  <defs
     id="defs2">
    <inkscape:path-effect
       effect="bspline"
       id="path-effect1369"
       is_visible="true"
       lpeversion="1"
       weight="33.333333"
       steps="2"
       helper_size="0"
       apply_no_weight="true"
       apply_with_weight="true"
       only_selected="false" />
    <inkscape:path-effect
       effect="bspline"
       id="path-effect1365"
       is_visible="true"
       lpeversion="1"
       weight="33.333333"
       steps="2"
       helper_size="0"
       apply_no_weight="true"
       apply_with_weight="true"
       only_selected="false" />
    <inkscape:path-effect
       effect="bspline"
       id="path-effect1361"
       is_visible="true"
       lpeversion="1"
       weight="33.333333"
       steps="2"
       helper_size="0"
       apply_no_weight="true"
       apply_with_weight="true"
       only_selected="false" />
    <inkscape:path-effect
       effect="spiro"
       id="path-effect3349"
       is_visible="true"
       lpeversion="1" />
    <inkscape:path-effect
       effect="bspline"
       id="path-effect2898"
       is_visible="true"
       lpeversion="1"
       weight="33.333333"
       steps="2"
       helper_size="0"
       apply_no_weight="true"
       apply_with_weight="true"
       only_selected="false" />
    <inkscape:path-effect
       effect="bspline"
       id="path-effect2173"
       is_visible="true"
       lpeversion="1"
       weight="33.333333"
       steps="2"
       helper_size="0"
       apply_no_weight="true"
       apply_with_weight="true"
       only_selected="false" />
    <inkscape:path-effect
       effect="spiro"
       id="path-effect15808"
       is_visible="true"
       lpeversion="1" />
    <inkscape:path-effect
       effect="spiro"
       id="path-effect14469"
       is_visible="true"
       lpeversion="1" />
    <inkscape:path-effect
       effect="spiro"
       id="path-effect14440"
       is_visible="true"
       lpeversion="1" />
    <inkscape:path-effect
       effect="spiro"
       id="path-effect14411"
       is_visible="true"
       lpeversion="1" />
    <inkscape:path-effect
       effect="spiro"
       id="path-effect14382"
       is_visible="true"
       lpeversion="1" />
    <inkscape:path-effect
       effect="spiro"
       id="path-effect14353"
       is_visible="true"
       lpeversion="1" />
    <inkscape:path-effect
       effect="spiro"
       id="path-effect14324"
       is_visible="true"
       lpeversion="1" />
    <inkscape:path-effect
       effect="spiro"
       id="path-effect14295"
       is_visible="true"
       lpeversion="1" />
    <inkscape:path-effect
       effect="spiro"
       id="path-effect14187"
       is_visible="true"
       lpeversion="1" />
    <inkscape:path-effect
       effect="spiro"
       id="path-effect13830"
       is_visible="true"
       lpeversion="1" />
    <inkscape:path-effect
       effect="bspline"
       id="path-effect11157"
       is_visible="true"
       lpeversion="1"
       weight="33.333333"
       steps="2"
       helper_size="0"
       apply_no_weight="true"
       apply_with_weight="true"
       only_selected="false" />
    <inkscape:path-effect
       effect="bspline"
       id="path-effect10189"
       is_visible="true"
       lpeversion="1"
       weight="33.333333"
       steps="2"
       helper_size="0"
       apply_no_weight="true"
       apply_with_weight="true"
       only_selected="false" />
    <inkscape:path-effect
       effect="bspline"
       id="path-effect10072"
       is_visible="true"
       lpeversion="1"
       weight="33.333333"
       steps="2"
       helper_size="0"
       apply_no_weight="true"
       apply_with_weight="true"
       only_selected="false" />
    <inkscape:path-effect
       effect="bspline"
       id="path-effect9875"
       is_visible="true"
       lpeversion="1"
       weight="33.333333"
       steps="2"
       helper_size="0"
       apply_no_weight="true"
       apply_with_weight="true"
       only_selected="false" />
    <clipPath
       clipPathUnits="userSpaceOnUse"
       id="clipPath5420">
      <path
         id="path5422"
         style="fill:#ff0000;fill-opacity:1;fill-rule:nonzero;stroke:none;stroke-width:0.264583"
         d="m 56.769661,125.4895 v 38.07622 H 94.513612 V 125.4895 H 76.060475 c 0.0016,0.53141 0.0061,1.10974 0,1.49655 -0.02934,1.85629 -0.103976,3.7122 -0.165365,5.56761 -0.01233,0.37469 -0.02861,0.74918 -0.03721,1.12397 -0.0027,0.11934 -0.004,0.23873 -0.0047,0.35811 0.03118,0.0866 -0.01013,0.25459 0.0078,0.35502 0.0016,0.008 -0.0078,-0.0155 -0.0078,-0.0238 -5.29e-4,-0.11042 -5.29e-4,-0.22083 0,-0.33124 -0.01132,-0.0315 -0.03174,-0.0525 -0.06873,-0.0553 -0.507804,-0.038 -1.016506,-0.0249 -1.52549,0.005 0.10409,0.18694 0.207672,0.37408 0.307475,0.56327 1.607275,0.14568 2.927821,0.29412 1.277959,0.39584 -0.343951,0.0212 -0.687909,0.0562 -1.031978,0.093 0.196593,0.40885 0.373745,0.82703 0.562239,1.23972 0.09288,0.25323 0.188328,0.50544 0.278535,0.75964 0.196559,0.5539 0.373187,1.11433 0.565341,1.66967 -0.314177,-0.29167 -0.628402,-0.58323 -0.942579,-0.87489 -0.855728,-0.79442 -1.027607,-0.4803 -0.955497,0.23203 0.221919,0.36295 0.443436,0.72614 0.666628,1.08831 0.388803,0.65256 0.790803,1.29721 1.166336,1.9575 0.510471,0.89754 1.001678,1.80604 1.491382,2.71508 0.764488,1.41913 1.0652,2.0125 1.707907,3.49023 0.132498,0.30465 0.256236,0.6138 0.363802,0.9281 0.08,0.23378 0.138266,0.47425 0.203605,0.71262 0.645345,0.45107 0.545592,0.62705 0.08113,0.67231 0.07068,0.88926 -0.08348,1.56295 -2.000396,1.92133 -0.656516,0.12274 -1.079106,-0.78746 -1.618506,-1.18132 -0.810943,-0.59214 -0.689751,-0.82395 -0.154512,-0.8909 -0.241517,-0.68374 -0.735105,-1.7463 -0.963766,-2.21434 -0.273476,-0.55979 -0.569425,-1.10858 -0.864547,-1.65726 -1.434901,-2.66774 -1.180849,-2.18916 -2.564183,-4.51187 -0.613897,-0.99691 -1.216893,-2.00043 -1.841748,-2.99052 -0.01109,-0.0176 -0.02299,-0.0346 -0.03411,-0.0522 -0.01894,0.0253 -0.0379,0.0506 -0.05684,0.076 -0.04252,-0.0608 -0.07954,-0.11143 -0.11834,-0.16536 -0.01238,0.0162 -0.02479,0.0324 -0.03721,0.0486 -0.02148,0.028 -0.05401,-0.045 -0.08062,-0.0682 -0.05804,-0.0505 -0.115697,-0.10125 -0.173117,-0.15245 -0.286401,-0.25558 -0.570031,-0.51476 -0.869714,-0.75499 -0.31949,-0.27717 -0.876221,-0.75262 -1.174089,-1.04283 -0.308133,-0.30021 -0.614238,-0.60372 -0.904335,-0.9214 -0.193061,-0.21142 -0.366482,-0.43965 -0.543637,-0.66455 -0.90401,-1.14771 -0.806849,-1.03688 -1.588018,-2.13579 -0.330346,-0.4588 -0.658358,-0.91964 -0.991153,-1.37666 -0.318709,-0.43768 -1.185712,-1.59204 -1.457275,-1.94665 -0.684355,-0.89362 -0.387244,-0.45025 -1.148768,-1.49604 -0.06044,-0.083 -0.110887,-0.17249 -0.166396,-0.25889 -0.400111,-0.62239 -0.591386,-1.20043 -0.627354,-1.70171 z m 23.231658,24.13806 c -0.015,-0.18868 -0.03931,-0.38658 -0.05995,-0.59377 -0.0074,-0.0261 -0.01402,-0.0524 -0.02119,-0.0785 -0.05246,-0.0367 -0.101756,-0.0723 -0.164332,-0.11266 -0.510286,-0.32946 -0.942438,-1.13801 -1.531173,-0.98857 -1.855835,0.47107 -2.070386,0.92653 -1.96577,1.61799 0.906613,-0.099 2.906353,0.23702 3.742407,0.15555 z M 69.106375,125.4895 c 0.03279,0.0378 0.06526,0.0777 0.09767,0.11782 0.01143,-0.0296 0.03321,-0.085 0.04599,-0.11782 z" />
    </clipPath>
    <clipPath
       clipPathUnits="userSpaceOnUse"
       id="clipPath11029">
      <path
         id="path11031"
         style="fill:#ff0000;fill-opacity:1;fill-rule:nonzero;stroke:none;stroke-width:0.264583"
         d="m 55.783676,125.2275 v 40.34895 H 96.13315 V 125.2275 H 76.375699 c 0.157528,0.91608 0.320143,1.83121 0.41393,2.75693 0.02252,0.22236 0.03345,0.44583 0.05013,0.6687 -0.0057,0.47707 0.01191,0.82786 0.01138,1.3224 0.0026,0.15478 -0.0039,0.30852 -0.01138,0.46302 -0.09673,1.99297 -0.857663,1.61598 -1.769401,0.69815 -0.0082,0.0157 -0.01677,0.0313 -0.02479,0.047 v 5.3e-4 c -0.05021,0.69541 -0.597384,0.82207 -0.826307,0.43925 -0.08416,0.0458 -0.169942,0.0853 -0.256831,0.11886 -0.0611,0.0444 -0.134107,0.0679 -0.211873,0.0677 -0.572082,0.15314 -1.177846,0.0514 -1.703255,-0.31006 -0.01386,0.0368 -0.02737,0.0767 -0.04134,0.11266 -0.0167,0.0757 -0.04288,0.14118 -0.07752,0.19688 -0.106164,0.25663 -0.216519,0.48135 -0.331245,0.6625 0.664382,0.38919 0.683312,0.6552 -0.716754,0.64802 -0.750231,-0.004 -1.504823,0.0487 -2.256192,0.0594 -0.248166,0.39171 -0.690473,0.82377 -1.412835,1.33273 -0.502008,0.3537 -1.17755,0.24129 -1.822112,0.0171 -0.314042,0.40586 -0.711102,0.35346 -1.268137,-0.59273 -0.277855,-0.21537 -0.53109,-0.52278 -0.530717,-0.786 -0.202933,-0.32027 -0.39669,-0.64961 -0.442868,-0.7307 -0.147365,-0.2589 -0.294886,-0.51791 -0.432014,-0.78238 -0.108622,-0.0897 -0.21626,-0.17971 -0.322461,-0.27079 -1.507657,-1.29295 -1.183487,-0.95996 -2.036569,-1.99264 -1.365885,-1.65345 -1.474097,-3.1923 -0.899171,-4.14652 z m 7.806759,7.92303 c 0.164973,0.26037 0.335814,0.51511 0.439248,0.62425 -0.009,-0.0163 -0.01778,-0.0306 -0.02687,-0.0476 -0.136319,-0.25219 -0.271386,-0.48891 -0.383956,-0.71933 -0.01939,0.0453 -0.02835,0.0933 -0.02842,0.14263 z m 0.439248,0.62425 c 0.03081,0.056 0.06159,0.11099 0.09147,0.16175 0.08836,0.0685 0.179234,0.12776 0.265099,0.17311 -0.123193,-0.10721 -0.24433,-0.21644 -0.356568,-0.33486 z m 1.359606,0.75447 c 0.142581,-0.18426 0.268102,-0.4628 0.383439,-0.7953 -0.300011,0.19368 -0.596013,0.39124 -0.877464,0.60255 0.160272,0.0679 0.32589,0.13407 0.494025,0.19275 z m 0.383439,-0.7953 c 0.09838,-0.0635 0.197194,-0.12664 0.296106,-0.18965 -0.06357,-0.0274 -0.131453,-0.06 -0.203605,-0.0982 -0.03038,0.0988 -0.06075,0.19632 -0.0925,0.28783 z m 3.588412,-2.49649 c -0.01868,0.0647 -0.03933,0.13041 -0.06356,0.19844 0.07542,0.0306 0.146468,0.0607 0.221176,0.0909 -0.04574,-0.10092 -0.09811,-0.19748 -0.157615,-0.28939 z m 0.675412,0.5023 v 5.3e-4 c 0.01191,0.005 0.02225,0.01 0.0341,0.0145 -0.0021,-0.004 -0.0026,-0.006 -0.0047,-0.01 -0.0093,-0.001 -0.02029,-0.003 -0.02946,-0.005 z m -3.77703,0.23306 c -0.127148,0.50339 -0.253965,1.01525 -0.392223,1.46606 0.09,0.0204 0.18003,0.0407 0.26975,0.062 0.242255,-0.15422 0.483836,-0.30901 0.720887,-0.46819 -0.135279,-0.11843 -0.195932,-0.36461 -0.303343,-0.52193 -0.06324,-0.0926 -0.109188,-0.19625 -0.163298,-0.29455 -0.08693,-0.15784 -0.09819,-0.18204 -0.131773,-0.2434 z" />
    </clipPath>
    <clipPath
       clipPathUnits="userSpaceOnUse"
       id="clipPath11039">
      <path
         id="path11041"
         style="fill:#ff0000;fill-opacity:1;fill-rule:nonzero;stroke:none;stroke-width:0.264583"
         d="m 72.576449,128.6986 -0.774631,5.3e-4 v 0.53537 c 0.01532,-0.0134 0.03308,-0.0293 0.04444,-0.0388 0.0738,-0.0615 0.154371,-0.11388 0.233061,-0.16898 0.328581,-0.22995 0.246319,-0.17666 0.495578,-0.32195 5.29e-4,-0.002 0.0011,-0.004 0.0016,-0.006 z m 2.66237,5.3e-4 c 8e-6,7.9e-4 -8e-6,0.002 0,0.003 -2.62e-4,0.004 -1.75e-4,0.008 -5.29e-4,0.0124 0.01138,0.0737 0.006,0.15812 0.0047,0.231 -0.0011,0.028 -0.0033,0.0559 -0.0062,0.0837 -1e-5,0.005 3e-6,0.009 0,0.014 -1.8e-5,0.0115 5.29e-4,0.0231 0,0.0346 -0.0016,0.0311 -0.0041,0.0619 -0.0062,0.093 -0.0021,0.0183 -0.0042,0.037 -0.0067,0.0553 -0.0085,0.0614 -0.01394,0.0917 -0.02326,0.14935 -0.0019,0.0121 -0.0038,0.0246 -0.0057,0.0367 2.65e-4,0.0268 2.65e-4,0.0538 -5.29e-4,0.0806 -0.0011,0.0287 -0.01151,0.0925 -0.01603,0.11937 -0.0021,0.0129 -0.0056,0.0258 -0.0067,0.0388 0.0011,-0.004 0.0042,-0.0185 0.0057,-0.0243 2.65e-4,-0.002 0.0011,-0.005 0.0011,-0.004 -0.0019,0.0711 -0.0068,0.14217 -0.01394,0.21291 1.22e-4,0.0173 9.8e-5,0.0261 5.29e-4,0.0682 2.25e-4,0.0288 0.0016,0.0576 -5.29e-4,0.0863 -0.0043,0.0566 -0.01072,0.1134 -0.01913,0.1695 -0.01619,0.0786 -0.01937,0.0909 -0.02223,0.10904 2.64e-4,0.009 7.94e-4,0.0182 0.0011,0.0274 7.94e-4,0.0286 0.0013,0.0572 0.0021,0.0858 0.0024,0.0411 0.0011,0.0821 -0.0021,0.12299 0.0019,0.0524 0.0033,0.10473 0.0031,0.1571 -1.56e-4,0.003 -1.59e-4,0.003 -5.29e-4,0.006 0.0019,-2.1e-4 7.93e-4,0.003 -5.3e-4,0.008 -7.93e-4,0.0172 -0.0013,0.0327 -0.0026,0.0434 h 4.005439 v -2.019 z m -0.04444,0.66508 c -1.48e-4,0.0124 1.32e-4,0.0248 5.29e-4,0.0372 2.51e-4,-0.002 1.54e-4,-0.004 5.29e-4,-0.006 -2.62e-4,-0.0102 -7.93e-4,-0.0412 -0.0011,-0.031 z" />
    </clipPath>
    <clipPath
       clipPathUnits="userSpaceOnUse"
       id="clipPath11039-1">
      <path
         id="path11041-0"
         style="fill:#ff0000;fill-opacity:1;fill-rule:nonzero;stroke:none;stroke-width:0.264583"
         d="m 72.576449,128.6986 -0.774631,5.3e-4 v 0.53537 c 0.01532,-0.0134 0.03308,-0.0293 0.04444,-0.0388 0.0738,-0.0615 0.154371,-0.11388 0.233061,-0.16898 0.328581,-0.22995 0.246319,-0.17666 0.495578,-0.32195 5.29e-4,-0.002 0.0011,-0.004 0.0016,-0.006 z m 2.66237,5.3e-4 c 8e-6,7.9e-4 -8e-6,0.002 0,0.003 -2.62e-4,0.004 -1.75e-4,0.008 -5.29e-4,0.0124 0.01138,0.0737 0.006,0.15812 0.0047,0.231 -0.0011,0.028 -0.0033,0.0559 -0.0062,0.0837 -1e-5,0.005 3e-6,0.009 0,0.014 -1.8e-5,0.0115 5.29e-4,0.0231 0,0.0346 -0.0016,0.0311 -0.0041,0.0619 -0.0062,0.093 -0.0021,0.0183 -0.0042,0.037 -0.0067,0.0553 -0.0085,0.0614 -0.01394,0.0917 -0.02326,0.14935 -0.0019,0.0121 -0.0038,0.0246 -0.0057,0.0367 2.65e-4,0.0268 2.65e-4,0.0538 -5.29e-4,0.0806 -0.0011,0.0287 -0.01151,0.0925 -0.01603,0.11937 -0.0021,0.0129 -0.0056,0.0258 -0.0067,0.0388 0.0011,-0.004 0.0042,-0.0185 0.0057,-0.0243 2.65e-4,-0.002 0.0011,-0.005 0.0011,-0.004 -0.0019,0.0711 -0.0068,0.14217 -0.01394,0.21291 1.22e-4,0.0173 9.8e-5,0.0261 5.29e-4,0.0682 2.25e-4,0.0288 0.0016,0.0576 -5.29e-4,0.0863 -0.0043,0.0566 -0.01072,0.1134 -0.01913,0.1695 -0.01619,0.0786 -0.01937,0.0909 -0.02223,0.10904 2.64e-4,0.009 7.94e-4,0.0182 0.0011,0.0274 7.94e-4,0.0286 0.0013,0.0572 0.0021,0.0858 0.0024,0.0411 0.0011,0.0821 -0.0021,0.12299 0.0019,0.0524 0.0033,0.10473 0.0031,0.1571 -1.56e-4,0.003 -1.59e-4,0.003 -5.29e-4,0.006 0.0019,-2.1e-4 7.93e-4,0.003 -5.3e-4,0.008 -7.93e-4,0.0172 -0.0013,0.0327 -0.0026,0.0434 h 4.005439 v -2.019 z m -0.04444,0.66508 c -1.48e-4,0.0124 1.32e-4,0.0248 5.29e-4,0.0372 2.51e-4,-0.002 1.54e-4,-0.004 5.29e-4,-0.006 -2.62e-4,-0.0102 -7.93e-4,-0.0412 -0.0011,-0.031 z" />
    </clipPath>
    <clipPath
       clipPathUnits="userSpaceOnUse"
       id="clipPath15678">
      <path
         id="path15680"
         style="fill:#ff0000;fill-opacity:1;fill-rule:nonzero;stroke:none;stroke-width:0.264583"
         d="m 55.728899,125.30863 v 40.11796 H 96.317636 V 125.30863 H 75.64913 c -0.01775,1.0301 -0.329052,2.02924 -0.519867,3.03702 0.0064,0.0286 0.0061,0.0307 0.01447,0.0661 0.399436,1.69561 -1.200468,0.069 -2.101681,-0.416 -0.08523,-0.006 -0.170513,-0.0131 -0.255281,-0.0217 -0.09624,-0.01 -0.177598,-0.0157 -0.24753,-0.0191 -0.01709,0.0978 -0.03151,0.17765 -0.04237,0.25063 0.98988,0.49747 4.214399,1.53767 2.355926,1.37562 -0.736536,-0.0642 -1.497179,0.005 -2.209683,-0.19275 -0.155821,-0.0432 -0.115509,-0.30307 -0.150379,-0.46095 -0.02342,-0.106 -0.02389,-0.2165 -0.02326,-0.32505 5.29e-4,-0.0857 0.0034,-0.15401 0.0078,-0.21549 -0.01201,-0.0705 -0.02408,-0.14098 -0.03669,-0.21136 -0.0097,-0.005 -0.01984,-0.0105 -0.02894,-0.0155 0.0016,0.0467 0.0044,0.0922 0.01291,0.14107 -0.0098,-0.0346 -0.01942,-0.0696 -0.02894,-0.10438 -0.0011,-0.0155 -0.0021,-0.031 -0.0031,-0.0465 -0.192149,-0.10808 -0.235297,-0.1799 -0.03928,-0.1943 -0.0218,-0.0531 -0.04424,-0.10596 -0.06305,-0.1602 -0.02125,-0.0613 -0.06854,-0.12479 -0.05219,-0.18759 0.0053,-0.0204 0.01082,-0.0411 0.01654,-0.0615 -0.128143,-0.2388 -0.226333,-0.49511 -0.261482,-0.76481 -0.0061,-0.0524 -0.01876,-0.10481 -0.0186,-0.15762 2.9e-5,-0.008 0.0199,0.0245 0.0186,0.0165 -0.04411,-0.26794 -0.08443,-0.3294 -0.195853,-0.60255 -0.187346,-0.45923 -0.0762,-0.26659 -0.384474,-0.64337 v -5.3e-4 c -0.02349,-0.0287 -0.04517,-0.0572 -0.06718,-0.0858 z m 16.767969,2.89698 c -0.01164,-0.006 -0.02053,-0.0109 -0.03152,-0.0165 0.0081,0.0155 0.01654,0.0309 0.02429,0.0465 0.0055,0.011 -0.009,-0.0121 -0.02429,-0.0388 0.0016,0.0435 0.0085,0.0951 0.01601,0.14831 0.0043,-0.0482 0.0088,-0.0944 0.0155,-0.13952 z m -0.03152,-0.009 c -9e-5,-0.003 6.7e-5,-0.005 0,-0.008 -7.6e-5,-4e-5 7.4e-5,-5.3e-4 0,-5.3e-4 -0.0019,-0.001 -0.0038,-0.002 -0.0057,-0.003 0.0024,0.004 0.0031,0.006 0.0057,0.0108 z m 0.0739,-0.24184 c 0.0026,-0.0148 0.0045,-0.0254 0.0072,-0.0413 1.64e-4,-8e-4 2.65e-4,-0.002 5.3e-4,-0.003 -0.01339,0.0114 -0.02439,0.0268 -0.03462,0.0434 0.0099,2.6e-4 0.01643,0 0.02687,5.3e-4 z m 0.167433,-1.80609 c -0.0319,0.005 -0.149902,0.1567 -0.197921,0.216 -0.302485,0.37342 -0.189577,0.49846 -0.248047,1.09554 0.0039,0.008 0.0084,0.0155 0.01241,0.0233 0.132413,-0.44183 0.342061,-0.86182 0.440285,-1.31258 0.0038,-0.0172 5.29e-4,-0.0235 -0.0067,-0.0222 z m -0.345199,1.58388 c -0.0011,0.0262 -5.29e-4,0.0734 0.0031,0.0956 0.0037,0.022 0.0079,0.0438 0.01241,0.0656 -0.0033,-0.0513 -0.0067,-0.10275 -0.01085,-0.15399 -0.0013,-0.002 -0.0034,-0.005 -0.0047,-0.007 z m 0.06305,0.56896 c 0.01273,0.0453 0.02564,0.0907 0.03721,0.13642 0.009,0.0355 -0.02405,-0.0696 -0.03152,-0.10542 -0.0024,-0.0111 -0.0039,-0.0205 -0.0057,-0.031 z" />
    </clipPath>
    <clipPath
       clipPathUnits="userSpaceOnUse"
       id="clipPath15688">
      <path
         id="path15690"
         style="fill:#ff0000;fill-opacity:1;fill-rule:nonzero;stroke:none;stroke-width:0.264583"
         d="m 75.538026,126.39383 c -0.03859,0.22397 -0.08433,0.44699 -0.132811,0.66973 v 0.12402 h 0.79375 v -0.79375 z" />
    </clipPath>
    <clipPath
       clipPathUnits="userSpaceOnUse"
       id="clipPath15698">
      <path
         id="path15700"
         style="fill:#ff0000;fill-opacity:1;fill-rule:nonzero;stroke:none;stroke-width:0.264583"
         d="m 75.643962,126.9478 v 1.7539 h 0.264584 v -1.7539 z" />
    </clipPath>
    <clipPath
       clipPathUnits="userSpaceOnUse"
       id="clipPath11039-8">
      <path
         id="path11041-8"
         style="fill:#ff0000;fill-opacity:1;fill-rule:nonzero;stroke:none;stroke-width:0.264583"
         d="m 72.576449,128.6986 -0.774631,5.3e-4 v 0.53537 c 0.01532,-0.0134 0.03308,-0.0293 0.04444,-0.0388 0.0738,-0.0615 0.154371,-0.11388 0.233061,-0.16898 0.328581,-0.22995 0.246319,-0.17666 0.495578,-0.32195 5.29e-4,-0.002 0.0011,-0.004 0.0016,-0.006 z m 2.66237,5.3e-4 c 8e-6,7.9e-4 -8e-6,0.002 0,0.003 -2.62e-4,0.004 -1.75e-4,0.008 -5.29e-4,0.0124 0.01138,0.0737 0.006,0.15812 0.0047,0.231 -0.0011,0.028 -0.0033,0.0559 -0.0062,0.0837 -1e-5,0.005 3e-6,0.009 0,0.014 -1.8e-5,0.0115 5.29e-4,0.0231 0,0.0346 -0.0016,0.0311 -0.0041,0.0619 -0.0062,0.093 -0.0021,0.0183 -0.0042,0.037 -0.0067,0.0553 -0.0085,0.0614 -0.01394,0.0917 -0.02326,0.14935 -0.0019,0.0121 -0.0038,0.0246 -0.0057,0.0367 2.65e-4,0.0268 2.65e-4,0.0538 -5.29e-4,0.0806 -0.0011,0.0287 -0.01151,0.0925 -0.01603,0.11937 -0.0021,0.0129 -0.0056,0.0258 -0.0067,0.0388 0.0011,-0.004 0.0042,-0.0185 0.0057,-0.0243 2.65e-4,-0.002 0.0011,-0.005 0.0011,-0.004 -0.0019,0.0711 -0.0068,0.14217 -0.01394,0.21291 1.22e-4,0.0173 9.8e-5,0.0261 5.29e-4,0.0682 2.25e-4,0.0288 0.0016,0.0576 -5.29e-4,0.0863 -0.0043,0.0566 -0.01072,0.1134 -0.01913,0.1695 -0.01619,0.0786 -0.01937,0.0909 -0.02223,0.10904 2.64e-4,0.009 7.94e-4,0.0182 0.0011,0.0274 7.94e-4,0.0286 0.0013,0.0572 0.0021,0.0858 0.0024,0.0411 0.0011,0.0821 -0.0021,0.12299 0.0019,0.0524 0.0033,0.10473 0.0031,0.1571 -1.56e-4,0.003 -1.59e-4,0.003 -5.29e-4,0.006 0.0019,-2.1e-4 7.93e-4,0.003 -5.3e-4,0.008 -7.93e-4,0.0172 -0.0013,0.0327 -0.0026,0.0434 h 4.005439 v -2.019 z m -0.04444,0.66508 c -1.48e-4,0.0124 1.32e-4,0.0248 5.29e-4,0.0372 2.51e-4,-0.002 1.54e-4,-0.004 5.29e-4,-0.006 -2.62e-4,-0.0102 -7.93e-4,-0.0412 -0.0011,-0.031 z" />
    </clipPath>
    <clipPath
       clipPathUnits="userSpaceOnUse"
       id="clipPath11039-1-3">
      <path
         id="path11041-0-5"
         style="fill:#ff0000;fill-opacity:1;fill-rule:nonzero;stroke:none;stroke-width:0.264583"
         d="m 72.576449,128.6986 -0.774631,5.3e-4 v 0.53537 c 0.01532,-0.0134 0.03308,-0.0293 0.04444,-0.0388 0.0738,-0.0615 0.154371,-0.11388 0.233061,-0.16898 0.328581,-0.22995 0.246319,-0.17666 0.495578,-0.32195 5.29e-4,-0.002 0.0011,-0.004 0.0016,-0.006 z m 2.66237,5.3e-4 c 8e-6,7.9e-4 -8e-6,0.002 0,0.003 -2.62e-4,0.004 -1.75e-4,0.008 -5.29e-4,0.0124 0.01138,0.0737 0.006,0.15812 0.0047,0.231 -0.0011,0.028 -0.0033,0.0559 -0.0062,0.0837 -1e-5,0.005 3e-6,0.009 0,0.014 -1.8e-5,0.0115 5.29e-4,0.0231 0,0.0346 -0.0016,0.0311 -0.0041,0.0619 -0.0062,0.093 -0.0021,0.0183 -0.0042,0.037 -0.0067,0.0553 -0.0085,0.0614 -0.01394,0.0917 -0.02326,0.14935 -0.0019,0.0121 -0.0038,0.0246 -0.0057,0.0367 2.65e-4,0.0268 2.65e-4,0.0538 -5.29e-4,0.0806 -0.0011,0.0287 -0.01151,0.0925 -0.01603,0.11937 -0.0021,0.0129 -0.0056,0.0258 -0.0067,0.0388 0.0011,-0.004 0.0042,-0.0185 0.0057,-0.0243 2.65e-4,-0.002 0.0011,-0.005 0.0011,-0.004 -0.0019,0.0711 -0.0068,0.14217 -0.01394,0.21291 1.22e-4,0.0173 9.8e-5,0.0261 5.29e-4,0.0682 2.25e-4,0.0288 0.0016,0.0576 -5.29e-4,0.0863 -0.0043,0.0566 -0.01072,0.1134 -0.01913,0.1695 -0.01619,0.0786 -0.01937,0.0909 -0.02223,0.10904 2.64e-4,0.009 7.94e-4,0.0182 0.0011,0.0274 7.94e-4,0.0286 0.0013,0.0572 0.0021,0.0858 0.0024,0.0411 0.0011,0.0821 -0.0021,0.12299 0.0019,0.0524 0.0033,0.10473 0.0031,0.1571 -1.56e-4,0.003 -1.59e-4,0.003 -5.29e-4,0.006 0.0019,-2.1e-4 7.93e-4,0.003 -5.3e-4,0.008 -7.93e-4,0.0172 -0.0013,0.0327 -0.0026,0.0434 h 4.005439 v -2.019 z m -0.04444,0.66508 c -1.48e-4,0.0124 1.32e-4,0.0248 5.29e-4,0.0372 2.51e-4,-0.002 1.54e-4,-0.004 5.29e-4,-0.006 -2.62e-4,-0.0102 -7.93e-4,-0.0412 -0.0011,-0.031 z" />
    </clipPath>
  </defs>
  <g
     inkscape:groupmode="layer"
     id="layer16"
     inkscape:label="bg"
     sodipodi:insensitive="true"
     style="display:none"
     transform="translate(-37.576123,-158.462)">
    <rect
       style="fill:#00001e;fill-opacity:1;stroke:#000000;stroke-width:0.281536;stroke-linejoin:round;stroke-miterlimit:4;stroke-dasharray:none;paint-order:stroke markers fill"
       id="rect83549"
       width="73.444839"
       height="45.756275"
       x="28.205048"
       y="155.24672" />
  </g>
  <g
     inkscape:groupmode="layer"
     id="layer2"
     inkscape:label="text"
     style="display:inline"
     transform="translate(-37.576123,-158.462)"
     sodipodi:insensitive="true">
    <rect
       style="fill:#45ffd1;fill-opacity:1;stroke:#000000;stroke-width:0.732449;stroke-miterlimit:4;stroke-dasharray:none;stroke-opacity:1;paint-order:stroke markers fill"
       id="rect7411"
       width="50.614655"
       height="4.2718272"
       x="38.731735"
       y="187.40103" />
    <path
       style="fill:#ff2065;fill-opacity:1;stroke:#000000;stroke-width:0.687917;stroke-linecap:butt;stroke-linejoin:miter;stroke-miterlimit:4;stroke-dasharray:none;stroke-opacity:1"
       d="m 87.565948,162.913 6.213901,-3.73472 -6.832948,28.70527 -2.333993,0.19935 z"
       id="path14212"
       sodipodi:nodetypes="ccccc" />
    <path
       style="fill:#45ffd1;fill-opacity:1;stroke:#000000;stroke-width:0.3;stroke-linecap:butt;stroke-linejoin:miter;stroke-miterlimit:4;stroke-dasharray:none;stroke-opacity:1"
       d="m 62.505866,164.24689 3.173572,-0.79339 -1.639678,22.32079 h -2.327286 z"
       id="path1922" />
    <path
       id="path1514"
       style="fill:#45ffd1;fill-opacity:1;stroke:#000000;stroke-width:2.234;stroke-linecap:butt;stroke-linejoin:miter;stroke-miterlimit:4;stroke-dasharray:none;stroke-opacity:1"
       d="m 161.48047,616.06641 -18.22266,5.73632 11.23633,79.9375 h 11.4043 l -1.64258,-31.8457 h 16.41797 l -2.38281,31.8418 h 10.83984 l 8.35156,-76.70313 -12.80859,-8.56836 -2.89649,38.69922 h -18.28125 z"
       transform="scale(0.26458333)" />
    <path
       id="path2171"
       style="fill:#45ffd1;fill-opacity:1;stroke:#000000;stroke-width:2.334;stroke-linecap:butt;stroke-linejoin:miter;stroke-miterlimit:4;stroke-dasharray:none;stroke-opacity:1"
       d="m 272.72852,614.9707 -1.39063,44.14844 c -0.64924,-0.0699 -1.93013,-0.21969 -4.79101,-0.55273 -5.3359,-0.61985 -16.00801,-1.85889 -21.54297,4.14648 -5.53497,6.00533 -5.93234,19.25432 -1.18555,26.59961 4.74679,7.34525 14.63646,8.78633 20.4082,9.26172 2.73645,0.22539 4.54669,0.23271 5.89063,-0.75977 l -0.12696,4.03321 h 4.89063 l 10.56641,-82.76758 z m -10.2168,51.50782 c 2.08835,-0.002 4.54472,0.36601 7.41992,1.29101 l -1.64648,23.41797 c 0,0 -13.34029,-0.0615 -16.5586,-6.38867 -3.28726,-6.46281 0.0566,-12.625 0.0566,-12.625 0,0 2.53575,-5.68874 10.72852,-5.69531 z"
       transform="scale(0.26458333)" />
    <path
       style="fill:#45d1ff;fill-opacity:1;stroke:#000000;stroke-width:0.3;stroke-linecap:butt;stroke-linejoin:miter;stroke-miterlimit:4;stroke-dasharray:none;stroke-opacity:1"
       d="m 75.740095,185.55361 0.0026,-11.19177 1.776806,-0.33312 1.111913,11.51222 z"
       id="path9616"
       sodipodi:nodetypes="ccccc" />
    <circle
       style="fill:#45d1ff;fill-opacity:1;stroke:#000000;stroke-width:1.09696;stroke-miterlimit:4;stroke-dasharray:none;stroke-opacity:1;paint-order:stroke markers fill"
       id="path9753"
       cx="75.921463"
       cy="168.35243"
       r="1.6657561" />
    <path
       id="path13164"
       style="fill:#45d1ff;fill-opacity:1;stroke:#000000;stroke-width:2.334;stroke-linecap:butt;stroke-linejoin:miter;stroke-miterlimit:4;stroke-dasharray:none;stroke-opacity:1"
       d="m 305.66602,617.56836 0.29296,26.46289 -11.42773,1.37891 -3.67773,5.26953 15.16796,-1.05274 0.57813,52.02539 h 4.03711 l 2.60937,-52.52734 12.57618,-0.87305 8.32421,-7.61914 -20.60156,2.48438 1.00781,-20.26758 z"
       transform="scale(0.26458333)" />
    <circle
       style="fill:#ff2065;fill-opacity:1;stroke:#000000;stroke-width:1.32292;stroke-miterlimit:4;stroke-dasharray:none;stroke-opacity:1;paint-order:stroke markers fill"
       id="path15007"
       cx="85.212685"
       cy="192.26524"
       r="2.3092585" />
  </g>
  <g
     inkscape:groupmode="layer"
     id="g20298"
     inkscape:label="outer circle white"
     style="display:none"
     sodipodi:insensitive="true"
     transform="translate(-37.576123,-158.462)">
    <ellipse
       style="display:inline;fill:none;fill-opacity:1;stroke:#ffffff;stroke-width:0.100655;stroke-linecap:butt;stroke-linejoin:miter;stroke-miterlimit:4;stroke-dasharray:none;stroke-opacity:1;paint-order:stroke markers fill"
       id="ellipse20294"
       cx="55.942894"
       cy="178.95909"
       rx="6.052608"
       ry="5.9843678" />
    <ellipse
       style="display:inline;fill:none;fill-opacity:1;stroke:#ffffff;stroke-width:1.144;stroke-linecap:butt;stroke-linejoin:miter;stroke-miterlimit:4;stroke-dasharray:none;stroke-opacity:1;paint-order:stroke markers fill"
       id="ellipse20296"
       cx="55.942894"
       cy="178.95909"
       rx="6.2913651"
       ry="6.2204337" />
  </g>
  <g
     inkscape:groupmode="layer"
     id="layer17"
     inkscape:label="timer 3"
     transform="translate(-37.576123,-158.462)"
     style="display:inline"
     sodipodi:insensitive="true">
    <path
       id="path86270"
       style="fill:#45ffd1;fill-opacity:1;stroke:#000000;stroke-width:4.79;stroke-linejoin:round;stroke-miterlimit:4;stroke-dasharray:none;stroke-opacity:1;paint-order:stroke markers fill"
       d="m 207.03906,647.91797 v 1.77539 1.77734 h 5.72852 5.73047 v -1.77734 -1.77539 h -5.73047 z m 5.36719,6.89648 c -2.02462,0.0308 -4.0388,0.32448 -5.97461,0.88282 -2.69489,0.77733 -4.89327,1.84541 -7.21875,3.5039 l -0.99219,0.70703 -1.87304,-1.87109 -1.87305,-1.87109 -1.78125,1.78125 -1.7832,1.7832 1.87695,1.87695 c 1.75092,1.75351 1.86554,1.89135 1.73242,2.07617 -1.01092,1.40278 -1.36313,1.93246 -1.88086,2.83399 -0.72645,1.26474 -1.29778,2.53993 -1.82617,4.07226 -1.32419,3.84019 -1.57423,8.29313 -0.69336,12.39649 0.5088,2.37025 1.84068,5.54383 3.20508,7.63867 3.70059,5.68169 9.7208,9.46867 16.52344,10.39258 1.40146,0.19052 4.29714,0.19093 5.74804,0.002 8.7207,-1.13594 15.95055,-6.8696 18.96289,-15.04101 2.67001,-7.24271 1.48149,-15.5212 -3.11914,-21.74219 l -0.56445,-0.76367 1.86914,-1.8711 1.86914,-1.87109 -1.7832,-1.7832 -1.78125,-1.78125 -1.8711,1.86914 -1.87109,1.86914 -0.74219,-0.54883 c -2.37579,-1.75393 -5.26754,-3.12177 -8.11718,-3.83985 -1.97949,-0.49885 -4.0164,-0.73194 -6.04102,-0.70117 z m 0.45703,5.07032 c 7.65433,0.007 14.4531,4.84488 17.02539,12.11132 1.75255,4.95077 1.20455,10.65 -1.46094,15.17969 -2.95789,5.02658 -8.04723,8.2756 -13.89257,8.86914 v 0.002 c -0.97608,0.0983 -2.49856,0.11616 -3.17969,0.0391 -3.00048,-0.34205 -5.13242,-0.97709 -7.30078,-2.17774 -4.60858,-2.55186 -7.81976,-6.83399 -8.96875,-11.95703 -1.63207,-7.27687 1.3789,-14.82945 7.57812,-19.0039 3.00908,-2.02632 6.4739,-3.06602 10.19922,-3.0625 z"
       transform="scale(0.26458333)" />
    <path
       style="fill:#ff2065;fill-opacity:1;stroke:#001100;stroke-width:1.03505;stroke-linejoin:round;stroke-miterlimit:4;stroke-dasharray:none;stroke-opacity:1;paint-order:stroke markers fill"
       d="m 55.615455,181.59059 v -1.52018 l -1.009681,-0.007 -1.009681,-0.007 1.680883,-2.18735 1.680878,-2.18734 0.007,1.51582 0.007,1.51584 1.011008,0.007 1.011007,0.007 -1.665411,2.16646 c -0.915979,1.19153 -1.676059,2.17781 -1.689074,2.19169 -0.01394,0.0147 -0.02378,-0.60556 -0.02378,-1.49493 z"
       id="path86884" />
  </g>
  <g
     inkscape:groupmode="layer"
     id="layer15"
     inkscape:label="timer 2"
     style="display:none"
     sodipodi:insensitive="true"
     transform="translate(-37.576123,-158.462)">
    <g
       id="g51254"
       style="fill:#ff2065;fill-opacity:1;stroke:#000000;stroke-width:0.407692;stroke-miterlimit:4;stroke-dasharray:none;stroke-opacity:1"
       inkscape:transform-center-x="8.9090045"
       inkscape:transform-center-y="-8.7683433"
       transform="matrix(0.52644952,-8.6582334e-5,8.6582334e-5,0.52644952,51.364058,143.79389)">
      <path
         id="path51252"
         style="fill:#ff2065;fill-opacity:1;stroke:#000000;stroke-width:0.541447;stroke-miterlimit:4;stroke-dasharray:none;stroke-opacity:1"
         d="m 0.00285539,56.764299 c -0.00993,7.6e-4 -0.0165,0.0028 -0.021484,0.0078 -0.3105296,0.310529 7.55230421,10.247494 7.97656221,10.783204 8.61e-4,0.0011 0.009,0.01266 0.0098,0.01367 0.359644,0.524535 0.962563,0.868523 1.646485,0.869142 1.1040004,0 1.9999534,-0.894095 2.0019534,-1.996094 0.0013,-0.69125 -0.347588,-1.300742 -0.878906,-1.660156 -0.0019,-0.0013 -0.0039,-0.0026 -0.0059,-0.0039 C 10.197227,64.352113 0.61125129,56.717723 0.00285539,56.764299 Z" />
    </g>
    <path
       style="fill:#45ffd1;fill-opacity:1;stroke:#000000;stroke-width:0.285044;stroke-miterlimit:4;stroke-dasharray:none;stroke-opacity:1"
       d="m 57.076352,172.52382 c -0.20438,0.67713 0.439423,0.90012 0.629262,0.94989 1.883335,0.49377 3.449277,1.96636 3.953013,3.98552 0.73528,2.94728 -1.06384,5.94246 -4.011121,6.67776 -2.947281,0.73526 -5.943494,-1.06361 -6.678772,-4.01089 -0.168968,-0.67731 -0.201334,-1.35723 -0.118017,-2.01067 0.01134,-0.0847 0.174103,-0.67012 -0.484885,-0.88661 -0.451414,-0.14783 -0.764421,0.22434 -0.797457,0.41814 -0.155719,0.90481 -0.1314,1.8548 0.104968,2.80232 0.914957,3.6675 4.629427,5.89867 8.296927,4.98372 3.667501,-0.91498 5.89867,-4.62945 4.983714,-8.29695 -0.651557,-2.61167 -2.725606,-4.48977 -5.188854,-5.02444 -0.0517,-0.0111 -0.546452,-0.0611 -0.688796,0.41221 z"
       id="path51262" />
  </g>
  <g
     inkscape:groupmode="layer"
     id="layer6"
     inkscape:label="arrow white 1"
     style="display:none"
     sodipodi:insensitive="true"
     transform="translate(-37.576123,-158.462)">
    <path
       style="display:inline;fill:#ffffff;fill-opacity:1;stroke:none;stroke-width:0.124813;stroke-linecap:butt;stroke-linejoin:miter;stroke-miterlimit:4;stroke-dasharray:none;stroke-opacity:1"
       d="m 52.781394,174.63619 1.358987,-1.94524 -2.365127,-0.20623 z"
       id="path1296-9" />
  </g>
  <g
     inkscape:groupmode="layer"
     id="layer3"
     inkscape:label="knob"
     style="display:none"
     transform="translate(-37.576123,-158.462)"
     sodipodi:insensitive="true">
    <path
       style="fill:#000000;fill-opacity:1;stroke:#ffffff;stroke-width:0.135;stroke-linecap:butt;stroke-linejoin:round;stroke-miterlimit:4;stroke-dasharray:none;stroke-opacity:1"
       d="m 55.747173,172.85989 0.614961,-0.11105 0.0041,-0.66836 0.723571,-0.33446 v -0.31171 l -2.236335,-0.0262 v 0.39372 l 0.708391,0.26503 0.0076,0.52464 z"
       id="path15283"
       sodipodi:nodetypes="cccccccccc" />
  </g>
  <g
     inkscape:groupmode="layer"
     id="layer11"
     inkscape:label="outer circle black"
     style="display:none"
     sodipodi:insensitive="true"
     transform="translate(-37.576123,-158.462)">
    <ellipse
       style="display:inline;fill:none;fill-opacity:1;stroke:#ffffff;stroke-width:0.100655;stroke-linecap:butt;stroke-linejoin:miter;stroke-miterlimit:4;stroke-dasharray:none;stroke-opacity:1;paint-order:stroke markers fill"
       id="path16888-3"
       cx="55.942894"
       cy="178.95909"
       rx="6.052608"
       ry="5.9843678" />
    <ellipse
       style="display:inline;fill:none;fill-opacity:1;stroke:#000000;stroke-width:0.605;stroke-linecap:butt;stroke-linejoin:miter;stroke-miterlimit:4;stroke-dasharray:none;stroke-opacity:1;paint-order:stroke markers fill"
       id="path16888-2-2"
       cx="55.942894"
       cy="178.95909"
       rx="6.2913651"
       ry="6.2204337" />
  </g>
  <g
     inkscape:groupmode="layer"
     id="g1298"
     inkscape:label="arrow white"
     style="display:none"
     sodipodi:insensitive="true"
     transform="translate(-37.576123,-158.462)">
    <path
       style="fill:#ffffff;fill-opacity:1;stroke:none;stroke-width:0.124813;stroke-linecap:butt;stroke-linejoin:miter;stroke-miterlimit:4;stroke-dasharray:none;stroke-opacity:1"
       d="m 53.436147,174.69323 1.358988,-1.94524 -2.365127,-0.20623 z"
       id="path1296" />
  </g>
  <g
     inkscape:groupmode="layer"
     id="layer9"
     inkscape:label="grey center"
     style="display:none"
     sodipodi:insensitive="true"
     transform="translate(-37.576123,-158.462)">
    <ellipse
       style="fill:#e6e6e6;fill-opacity:1;stroke:none;stroke-width:1.0515;stroke-linecap:butt;stroke-linejoin:miter;stroke-miterlimit:4;stroke-dasharray:none;stroke-opacity:1;paint-order:stroke markers fill"
       id="path16888"
       cx="55.942894"
       cy="178.95909"
       rx="6.052608"
       ry="5.9843678" />
  </g>
  <g
     inkscape:groupmode="layer"
     id="g1422"
     inkscape:label="arrow black"
     style="display:none"
     sodipodi:insensitive="true"
     transform="translate(-37.576123,-158.462)">
    <path
       style="fill:#000000;fill-opacity:1;stroke:none;stroke-width:0.124813;stroke-linecap:butt;stroke-linejoin:miter;stroke-miterlimit:4;stroke-dasharray:none;stroke-opacity:1"
       d="m 53.049768,174.81215 1.360274,-1.94435 -2.364989,-0.20779 z"
       id="path1420" />
  </g>
  <g
     inkscape:groupmode="layer"
     id="layer8"
     inkscape:label="thick tick"
     style="display:none"
     sodipodi:insensitive="true"
     transform="translate(-37.576123,-158.462)">
    <rect
       style="fill:#000000;fill-opacity:1;stroke:none;stroke-width:1.2282;stroke-miterlimit:4;stroke-dasharray:none;stroke-opacity:1;paint-order:stroke markers fill"
       id="rect16018"
       width="0.29807624"
       height="0.83212954"
       x="55.793854"
       y="184.23387" />
    <rect
       style="fill:#000000;fill-opacity:1;stroke:none;stroke-width:1.2282;stroke-miterlimit:4;stroke-dasharray:none;stroke-opacity:1;paint-order:stroke markers fill"
       id="rect16018-2"
       width="0.29807624"
       height="0.83212954"
       x="178.81007"
       y="-62.067356"
       transform="rotate(90)" />
    <rect
       style="fill:#000000;fill-opacity:1;stroke:none;stroke-width:1.2282;stroke-miterlimit:4;stroke-dasharray:none;stroke-opacity:1;paint-order:stroke markers fill"
       id="rect16018-2-5"
       width="0.29807624"
       height="0.83212954"
       x="178.81007"
       y="-50.615429"
       transform="rotate(90)" />
    <rect
       style="fill:#000000;fill-opacity:1;stroke:none;stroke-width:1.2282;stroke-miterlimit:4;stroke-dasharray:none;stroke-opacity:1;paint-order:stroke markers fill"
       id="rect16018-3"
       width="0.29807624"
       height="0.83212954"
       x="55.793858"
       y="172.8522" />
    <rect
       style="fill:#000000;fill-opacity:1;stroke:none;stroke-width:1.2282;stroke-miterlimit:4;stroke-dasharray:none;stroke-opacity:1;paint-order:stroke markers fill"
       id="rect16018-4"
       width="0.29807624"
       height="0.83212954"
       x="165.5847"
       y="80.951378"
       transform="rotate(45)" />
    <rect
       style="fill:#000000;fill-opacity:1;stroke:none;stroke-width:1.2282;stroke-miterlimit:4;stroke-dasharray:none;stroke-opacity:1;paint-order:stroke markers fill"
       id="rect16018-4-9"
       width="0.29807624"
       height="0.83212954"
       x="165.64467"
       y="92.250015"
       transform="rotate(45)" />
    <rect
       style="fill:#000000;fill-opacity:1;stroke:none;stroke-width:1.2282;stroke-miterlimit:4;stroke-dasharray:none;stroke-opacity:1;paint-order:stroke markers fill"
       id="rect16018-4-94"
       width="0.29807624"
       height="0.83212954"
       x="86.643799"
       y="-160.77461"
       transform="rotate(135)" />
    <rect
       style="fill:#000000;fill-opacity:1;stroke:none;stroke-width:1.2282;stroke-miterlimit:4;stroke-dasharray:none;stroke-opacity:1;paint-order:stroke markers fill"
       id="rect16018-4-94-9"
       width="0.29807624"
       height="0.83212954"
       x="86.873825"
       y="-172.19273"
       transform="rotate(135)" />
  </g>
  <g
     inkscape:groupmode="layer"
     id="layer5"
     inkscape:label="hands"
     style="display:none"
     sodipodi:insensitive="true"
     transform="translate(-37.576123,-158.462)">
    <ellipse
       style="fill:#aa0000;fill-opacity:1;stroke:none;stroke-width:0.981769;stroke-miterlimit:4;stroke-dasharray:none;stroke-opacity:1;paint-order:stroke markers fill"
       id="path6639-4-0"
       cx="85.182755"
       cy="197.60127"
       rx="0.18436809"
       ry="2.417726"
       transform="matrix(0.97482926,-0.22295272,-0.13525599,0.99081069,0,0)" />
    <ellipse
       style="display:inline;fill:#aa0000;fill-opacity:1;stroke:none;stroke-width:0.976323;stroke-miterlimit:4;stroke-dasharray:none;stroke-opacity:1;paint-order:stroke markers fill"
       id="path6639-4-0-3"
       cx="57.294189"
       cy="-162.16077"
       rx="0.19706136"
       ry="2.2369924"
       transform="matrix(-0.59057686,0.8069814,-0.55990184,-0.82855895,0,0)" />
  </g>
  <g
     inkscape:groupmode="layer"
     id="layer4"
     inkscape:label="center circle"
     style="display:none"
     sodipodi:insensitive="true"
     transform="translate(-37.576123,-158.462)">
    <circle
       style="fill:#000000;fill-opacity:1;stroke:none;stroke-width:1.99805;stroke-miterlimit:4;stroke-dasharray:none;stroke-opacity:1;paint-order:stroke markers fill"
       id="path6490"
       cx="55.942894"
       cy="178.95909"
       r="0.81357557" />
  </g>
</svg>
