<?xml version="1.0" encoding="UTF-8"?>
<!-- Created with Inkscape (http://www.inkscape.org/) -->
<svg width="39.305mm" height="42.386mm" version="1.1" viewBox="0 0 39.305 42.386" xmlns="http://www.w3.org/2000/svg">
 <defs>
  <clipPath id="clipPath11039">
   <path d="m72.576 128.7-0.77463 5.3e-4v0.53537c0.01532-0.0134 0.03308-0.0293 0.04444-0.0388 0.0738-0.0615 0.15437-0.11388 0.23306-0.16898 0.32858-0.22995 0.24632-0.17666 0.49558-0.32195 5.29e-4 -2e-3 0.0011-4e-3 0.0016-6e-3zm2.6624 5.3e-4c8e-6 7.9e-4 -8e-6 2e-3 0 3e-3 -2.62e-4 4e-3 -1.75e-4 8e-3 -5.29e-4 0.0124 0.01138 0.0737 6e-3 0.15812 0.0047 0.231-0.0011 0.028-0.0033 0.0559-0.0062 0.0837-1e-5 5e-3 3e-6 9e-3 0 0.014-1.8e-5 0.0115 5.29e-4 0.0231 0 0.0346-0.0016 0.0311-0.0041 0.0619-0.0062 0.093-0.0021 0.0183-0.0042 0.037-0.0067 0.0553-0.0085 0.0614-0.01394 0.0917-0.02326 0.14935-0.0019 0.0121-0.0038 0.0246-0.0057 0.0367 2.65e-4 0.0268 2.65e-4 0.0538-5.29e-4 0.0806-0.0011 0.0287-0.01151 0.0925-0.01603 0.11937-0.0021 0.0129-0.0056 0.0258-0.0067 0.0388 0.0011-4e-3 0.0042-0.0185 0.0057-0.0243 2.65e-4 -2e-3 0.0011-5e-3 0.0011-4e-3 -0.0019 0.0711-0.0068 0.14217-0.01394 0.21291 1.22e-4 0.0173 9.8e-5 0.0261 5.29e-4 0.0682 2.25e-4 0.0288 0.0016 0.0576-5.29e-4 0.0863-0.0043 0.0566-0.01072 0.1134-0.01913 0.1695-0.01619 0.0786-0.01937 0.0909-0.02223 0.10904 2.64e-4 9e-3 7.94e-4 0.0182 0.0011 0.0274 7.94e-4 0.0286 0.0013 0.0572 0.0021 0.0858 0.0024 0.0411 0.0011 0.0821-0.0021 0.12299 0.0019 0.0524 0.0033 0.10473 0.0031 0.1571-1.56e-4 3e-3 -1.59e-4 3e-3 -5.29e-4 6e-3 0.0019-2.1e-4 7.93e-4 3e-3 -5.3e-4 8e-3 -7.93e-4 0.0172-0.0013 0.0327-0.0026 0.0434h4.0054v-2.019zm-0.04444 0.66508c-1.48e-4 0.0124 1.32e-4 0.0248 5.29e-4 0.0372 2.51e-4 -2e-3 1.54e-4 -4e-3 5.29e-4 -6e-3 -2.62e-4 -0.0102-7.93e-4 -0.0412-0.0011-0.031z" fill="#f00"/>
  </clipPath>
  <clipPath id="clipPath11039-1">
   <path d="m72.576 128.7-0.77463 5.3e-4v0.53537c0.01532-0.0134 0.03308-0.0293 0.04444-0.0388 0.0738-0.0615 0.15437-0.11388 0.23306-0.16898 0.32858-0.22995 0.24632-0.17666 0.49558-0.32195 5.29e-4 -2e-3 0.0011-4e-3 0.0016-6e-3zm2.6624 5.3e-4c8e-6 7.9e-4 -8e-6 2e-3 0 3e-3 -2.62e-4 4e-3 -1.75e-4 8e-3 -5.29e-4 0.0124 0.01138 0.0737 6e-3 0.15812 0.0047 0.231-0.0011 0.028-0.0033 0.0559-0.0062 0.0837-1e-5 5e-3 3e-6 9e-3 0 0.014-1.8e-5 0.0115 5.29e-4 0.0231 0 0.0346-0.0016 0.0311-0.0041 0.0619-0.0062 0.093-0.0021 0.0183-0.0042 0.037-0.0067 0.0553-0.0085 0.0614-0.01394 0.0917-0.02326 0.14935-0.0019 0.0121-0.0038 0.0246-0.0057 0.0367 2.65e-4 0.0268 2.65e-4 0.0538-5.29e-4 0.0806-0.0011 0.0287-0.01151 0.0925-0.01603 0.11937-0.0021 0.0129-0.0056 0.0258-0.0067 0.0388 0.0011-4e-3 0.0042-0.0185 0.0057-0.0243 2.65e-4 -2e-3 0.0011-5e-3 0.0011-4e-3 -0.0019 0.0711-0.0068 0.14217-0.01394 0.21291 1.22e-4 0.0173 9.8e-5 0.0261 5.29e-4 0.0682 2.25e-4 0.0288 0.0016 0.0576-5.29e-4 0.0863-0.0043 0.0566-0.01072 0.1134-0.01913 0.1695-0.01619 0.0786-0.01937 0.0909-0.02223 0.10904 2.64e-4 9e-3 7.94e-4 0.0182 0.0011 0.0274 7.94e-4 0.0286 0.0013 0.0572 0.0021 0.0858 0.0024 0.0411 0.0011 0.0821-0.0021 0.12299 0.0019 0.0524 0.0033 0.10473 0.0031 0.1571-1.56e-4 3e-3 -1.59e-4 3e-3 -5.29e-4 6e-3 0.0019-2.1e-4 7.93e-4 3e-3 -5.3e-4 8e-3 -7.93e-4 0.0172-0.0013 0.0327-0.0026 0.0434h4.0054v-2.019zm-0.04444 0.66508c-1.48e-4 0.0124 1.32e-4 0.0248 5.29e-4 0.0372 2.51e-4 -2e-3 1.54e-4 -4e-3 5.29e-4 -6e-3 -2.62e-4 -0.0102-7.93e-4 -0.0412-0.0011-0.031z" fill="#f00"/>
  </clipPath>
  <clipPath id="clipPath15678">
   <path d="m55.729 125.31v40.118h40.589v-40.118h-20.669c-0.01775 1.0301-0.32905 2.0292-0.51987 3.037 0.0064 0.0286 0.0061 0.0307 0.01447 0.0661 0.39944 1.6956-1.2005 0.069-2.1017-0.416-0.08523-6e-3 -0.17051-0.0131-0.25528-0.0217-0.09624-0.01-0.1776-0.0157-0.24753-0.0191-0.01709 0.0978-0.03151 0.17765-0.04237 0.25063 0.98988 0.49747 4.2144 1.5377 2.3559 1.3756-0.73654-0.0642-1.4972 5e-3 -2.2097-0.19275-0.15582-0.0432-0.11551-0.30307-0.15038-0.46095-0.02342-0.106-0.02389-0.2165-0.02326-0.32505 5.29e-4 -0.0857 0.0034-0.15401 0.0078-0.21549-0.01201-0.0705-0.02408-0.14098-0.03669-0.21136-0.0097-5e-3 -0.01984-0.0105-0.02894-0.0155 0.0016 0.0467 0.0044 0.0922 0.01291 0.14107-0.0098-0.0346-0.01942-0.0696-0.02894-0.10438-0.0011-0.0155-0.0021-0.031-0.0031-0.0465-0.19215-0.10808-0.2353-0.1799-0.03928-0.1943-0.0218-0.0531-0.04424-0.10596-0.06305-0.1602-0.02125-0.0613-0.06854-0.12479-0.05219-0.18759 0.0053-0.0204 0.01082-0.0411 0.01654-0.0615-0.12814-0.2388-0.22633-0.49511-0.26148-0.76481-0.0061-0.0524-0.01876-0.10481-0.0186-0.15762 2.9e-5 -8e-3 0.0199 0.0245 0.0186 0.0165-0.04411-0.26794-0.08443-0.3294-0.19585-0.60255-0.18735-0.45923-0.0762-0.26659-0.38447-0.64337v-5.3e-4c-0.02349-0.0287-0.04517-0.0572-0.06718-0.0858zm16.768 2.897c-0.01164-6e-3 -0.02053-0.0109-0.03152-0.0165 0.0081 0.0155 0.01654 0.0309 0.02429 0.0465 0.0055 0.011-9e-3 -0.0121-0.02429-0.0388 0.0016 0.0435 0.0085 0.0951 0.01601 0.14831 0.0043-0.0482 0.0088-0.0944 0.0155-0.13952zm-0.03152-9e-3c-9e-5 -3e-3 6.7e-5 -5e-3 0-8e-3 -7.6e-5 -4e-5 7.4e-5 -5.3e-4 0-5.3e-4l-0.0057-3e-3c0.0024 4e-3 0.0031 6e-3 0.0057 0.0108zm0.0739-0.24184c0.0026-0.0148 0.0045-0.0254 0.0072-0.0413 1.64e-4 -8e-4 2.65e-4 -2e-3 5.3e-4 -3e-3 -0.01339 0.0114-0.02439 0.0268-0.03462 0.0434 0.0099 2.6e-4 0.01643 0 0.02687 5.3e-4zm0.16743-1.8061c-0.0319 5e-3 -0.1499 0.1567-0.19792 0.216-0.30248 0.37342-0.18958 0.49846-0.24805 1.0955 0.0039 8e-3 0.0084 0.0155 0.01241 0.0233 0.13241-0.44183 0.34206-0.86182 0.44028-1.3126 0.0038-0.0172 5.29e-4 -0.0235-0.0067-0.0222zm-0.3452 1.5839c-0.0011 0.0262-5.29e-4 0.0734 0.0031 0.0956 0.0037 0.022 0.0079 0.0438 0.01241 0.0656-0.0033-0.0513-0.0067-0.10275-0.01085-0.15399-0.0013-2e-3 -0.0034-5e-3 -0.0047-7e-3zm0.06305 0.56896c0.01273 0.0453 0.02564 0.0907 0.03721 0.13642 9e-3 0.0355-0.02405-0.0696-0.03152-0.10542-0.0024-0.0111-0.0039-0.0205-0.0057-0.031z" fill="#f00"/>
  </clipPath>
 </defs>
 <g transform="translate(-56.177 -122.22)">
  <g fill="none">
   <g stroke="#fff">
    <ellipse cx="75.829" cy="145.17" rx="18.04" ry="17.836" stroke-width=".3" style="paint-order:stroke markers fill"/>
    <ellipse cx="75.829" cy="145.17" rx="18.751" ry="18.54" stroke-width="1.8024" style="paint-order:stroke markers fill"/>
    <ellipse cx="75.829" cy="145.17" rx="18.04" ry="17.836" stroke-width=".3" style="paint-order:stroke markers fill"/>
   </g>
   <ellipse cx="75.829" cy="145.17" rx="18.751" ry="18.54" stroke="#000" stroke-width="1.8024" style="paint-order:stroke markers fill"/>
  </g>
  <g>
   <path d="m67.678 132.6 4.0542-5.795-7.0487-0.61931z" fill="#fff"/>
   <ellipse cx="75.829" cy="145.17" rx="18.04" ry="17.836" fill="#e6e6e6" style="paint-order:stroke markers fill"/>
   <ellipse cx="75.829" cy="145.17" rx="18.04" ry="17.836" fill="#e6e6e6" style="paint-order:stroke markers fill"/>
   <path d="m67.206 132.81 4.0542-5.795-7.0487-0.61931z"/>
  </g>
 </g>
 <g transform="translate(-56.177 -122.22)" display="none">
  <ellipse cx="76.023" cy="145.37" rx="19.297" ry="19.062" clip-path="url(#clipPath15678)" fill="none" stroke="#000" stroke-width="1.9952" style="paint-order:stroke markers fill"/>
 </g>
 <g transform="translate(-56.177 -122.22)">
  <rect x="74.774" y="124.13" width="2.1285" height="3.1649" style="paint-order:stroke markers fill"/>
  <rect x="74.774" y="123.86" width="2.1285" height="3.1649" style="paint-order:stroke markers fill"/>
  <g transform="matrix(.94042 0 0 .94042 4.8114 1.1894)">
   <path d="m73.016 130.72h4.8809c1.2226 0 1.229 0 1.2321-0.35095 0.0031-0.35095 0.0031-1.053-1.213-1.404-1.2161-0.35109-3.6484-0.35109-4.8647-7e-3 -1.2163 0.34368-1.2163 1.0309-1.2227 1.3818-0.0064 0.35091-0.01928 0.36576-0.02569 0.37315-0.0064 7e-3 -0.0064 7e-3 1.2131 7e-3z" clip-path="url(#clipPath11039)"/>
   <path transform="matrix(-1 0 0 1 151 0)" d="m73.016 130.72h4.8809c1.2226 0 1.229 0 1.2321-0.35095 0.0031-0.35095 0.0031-1.053-1.213-1.404-1.2161-0.35109-3.6484-0.35109-4.8647-7e-3 -1.2163 0.34368-1.2163 1.0309-1.2227 1.3818-0.0064 0.35091-0.01928 0.36576-0.02569 0.37315-0.0064 7e-3 -0.0064 7e-3 1.2131 7e-3z" clip-path="url(#clipPath11039-1)"/>
  </g>
 </g>
 <g transform="translate(-56.177 -122.22)">
  <rect x="75.385" y="160.89" width=".8884" height="2.4801" style="paint-order:stroke markers fill"/>
  <rect transform="rotate(90)" x="144.72" y="-94.083" width=".8884" height="2.4801" style="paint-order:stroke markers fill"/>
  <rect transform="rotate(90)" x="144.72" y="-59.951" width=".8884" height="2.4801" style="paint-order:stroke markers fill"/>
  <rect x="75.385" y="126.96" width=".8884" height="2.4801" style="paint-order:stroke markers fill"/>
  <rect transform="rotate(45)" x="154.73" y="31.044" width=".8884" height="2.4801" style="paint-order:stroke markers fill"/>
  <rect transform="rotate(45)" x="154.91" y="64.719" width=".8884" height="2.4801" style="paint-order:stroke markers fill"/>
  <rect transform="rotate(135)" x="48.01" y="-140.39" width=".8884" height="2.4801" style="paint-order:stroke markers fill"/>
  <rect transform="rotate(135)" x="48.695" y="-174.42" width=".8884" height="2.4801" style="paint-order:stroke markers fill"/>
 </g>
 <g transform="translate(-56.177 -122.22)" fill="#a00">
  <ellipse transform="matrix(.97483 -.22295 -.13526 .99081 0 0)" cx="101.51" cy="162.84" rx=".5495" ry="7.2059" style="paint-order:stroke markers fill"/>
  <ellipse transform="matrix(-.59058 .80698 -.5599 -.82856 0 0)" cx="19.842" cy="-161.76" rx=".58733" ry="6.6673" style="paint-order:stroke markers fill"/>
 </g>
 <g transform="translate(-56.177 -122.22)">
  <circle cx="75.829" cy="145.17" r="2.4248" style="paint-order:stroke markers fill"/>
 </g>
</svg>
