<?xml version="1.0" encoding="UTF-8" standalone="no"?>
<!-- Generator: Adobe Illustrator 16.0.0, SVG Export Plug-In . SVG Version: 6.00 Build 0)  -->

<svg
   version="1.1"
   id="Capa_1"
   x="0px"
   y="0px"
   width="151.18111"
   height="149.16158"
   viewBox="0 0 151.18111 149.16158"
   xml:space="preserve"
   sodipodi:docname="home.svg"
   inkscape:version="1.1.1 (3bf5ae0d25, 2021-09-20)"
   xmlns:inkscape="http://www.inkscape.org/namespaces/inkscape"
   xmlns:sodipodi="http://sodipodi.sourceforge.net/DTD/sodipodi-0.dtd"
   xmlns="http://www.w3.org/2000/svg"
   xmlns:svg="http://www.w3.org/2000/svg"><defs
   id="defs904" /><sodipodi:namedview
   id="namedview902"
   pagecolor="#ffffff"
   bordercolor="#999999"
   borderopacity="1"
   inkscape:pageshadow="0"
   inkscape:pageopacity="0"
   inkscape:pagecheckerboard="true"
   showgrid="false"
   fit-margin-top="0"
   fit-margin-left="0"
   fit-margin-right="0"
   fit-margin-bottom="0"
   inkscape:zoom="1.7254102"
   inkscape:cx="276.16621"
   inkscape:cy="272.68877"
   inkscape:window-width="2560"
   inkscape:window-height="1417"
   inkscape:window-x="1912"
   inkscape:window-y="-8"
   inkscape:window-maximized="1"
   inkscape:current-layer="Capa_1" />
<g
   id="g869"
   transform="matrix(0.27342706,0,0,0.27342706,0,-1.0097661)"
   style="fill:#ffffff;fill-opacity:1">
	<g
   id="g867"
   style="fill:#ffffff;fill-opacity:1">
		<path
   d="m 276.462,3.693 v 0 0 0 L 0,242.311 l 27.551,31.92 35.408,-30.58 V 549.218 H 221.08 v -163.53 h 55.382 v 0 h 55.382 V 549.219 H 489.963 V 243.657 l 35.403,30.583 27.546,-31.923 z m 0,258.213 c -33.82,0 -61.237,-27.417 -61.237,-61.234 0,-33.814 27.422,-61.232 61.237,-61.232 33.816,0 61.227,27.418 61.227,61.232 -0.001,33.811 -27.411,61.234 -61.227,61.234 z"
   id="path865"
   style="fill:#ffffff;fill-opacity:1" />
	</g>
</g>
<g
   id="g871"
   transform="translate(0,-3.693)">
</g>
<g
   id="g873"
   transform="translate(0,-3.693)">
</g>
<g
   id="g875"
   transform="translate(0,-3.693)">
</g>
<g
   id="g877"
   transform="translate(0,-3.693)">
</g>
<g
   id="g879"
   transform="translate(0,-3.693)">
</g>
<g
   id="g881"
   transform="translate(0,-3.693)">
</g>
<g
   id="g883"
   transform="translate(0,-3.693)">
</g>
<g
   id="g885"
   transform="translate(0,-3.693)">
</g>
<g
   id="g887"
   transform="translate(0,-3.693)">
</g>
<g
   id="g889"
   transform="translate(0,-3.693)">
</g>
<g
   id="g891"
   transform="translate(0,-3.693)">
</g>
<g
   id="g893"
   transform="translate(0,-3.693)">
</g>
<g
   id="g895"
   transform="translate(0,-3.693)">
</g>
<g
   id="g897"
   transform="translate(0,-3.693)">
</g>
<g
   id="g899"
   transform="translate(0,-3.693)">
</g>
</svg>
