<?xml version="1.0" encoding="UTF-8" standalone="no"?>
<!-- Created with Inkscape (http://www.inkscape.org/) -->

<svg
   width="162.02542mm"
   height="44.062408mm"
   viewBox="0 0 162.02542 44.062409"
   version="1.1"
   id="svg1838"
   inkscape:version="1.1.1 (3bf5ae0d25, 2021-09-20)"
   sodipodi:docname="newlogo.svg"
   xmlns:inkscape="http://www.inkscape.org/namespaces/inkscape"
   xmlns:sodipodi="http://sodipodi.sourceforge.net/DTD/sodipodi-0.dtd"
   xmlns:xlink="http://www.w3.org/1999/xlink"
   xmlns="http://www.w3.org/2000/svg"
   xmlns:svg="http://www.w3.org/2000/svg">
  <sodipodi:namedview
     id="namedview1840"
     pagecolor="#ffffff"
     bordercolor="#999999"
     borderopacity="1"
     inkscape:pageshadow="0"
     inkscape:pageopacity="0"
     inkscape:pagecheckerboard="true"
     inkscape:document-units="mm"
     showgrid="false"
     inkscape:zoom="2.1997092"
     inkscape:cx="332.08935"
     inkscape:cy="212.52809"
     inkscape:window-width="2560"
     inkscape:window-height="1417"
     inkscape:window-x="1912"
     inkscape:window-y="-8"
     inkscape:window-maximized="1"
     inkscape:current-layer="layer5"
     inkscape:snap-object-midpoints="true"
     showguides="false"
     inkscape:snap-others="false"
     fit-margin-top="0"
     fit-margin-left="0"
     fit-margin-right="0"
     fit-margin-bottom="0"
     lock-margins="false" />
  <defs
     id="defs1835">
    <linearGradient
       inkscape:collect="always"
       xlink:href="#linearGradient16056"
       id="linearGradient16048"
       x1="187.20129"
       y1="674.54993"
       x2="238.3625"
       y2="674.54993"
       gradientUnits="userSpaceOnUse"
       gradientTransform="matrix(0.97730303,0,0,0.97730303,-151.81072,-526.73024)" />
    <linearGradient
       id="linearGradient16056"
       inkscape:swatch="solid">
      <stop
         style="stop-color:#ff4242;stop-opacity:1;"
         offset="0"
         id="stop16054" />
    </linearGradient>
    <linearGradient
       inkscape:collect="always"
       xlink:href="#linearGradient16056"
       id="linearGradient28587"
       gradientUnits="userSpaceOnUse"
       gradientTransform="matrix(0.75606345,0,0,0.75606345,-116.94844,-389.55319)"
       x1="187.20129"
       y1="674.54993"
       x2="238.3625"
       y2="674.54993" />
  </defs>
  <g
     inkscape:groupmode="layer"
     id="layer2"
     inkscape:label="bg"
     style="display:none"
     sodipodi:insensitive="true"
     transform="translate(-2.6079758,-98.418535)">
    <rect
       style="fill:#000000;fill-opacity:1;stroke:none;stroke-width:1.40093;stroke-linejoin:round;stroke-miterlimit:4;stroke-dasharray:none;paint-order:stroke markers fill"
       id="rect9569"
       width="214.3299"
       height="106.48454"
       x="-0.68041241"
       y="74.164948"
       ry="1.5900003" />
  </g>
  <g
     inkscape:label="Layer 1"
     inkscape:groupmode="layer"
     id="layer1"
     style="display:none"
     sodipodi:insensitive="true"
     transform="translate(-2.6079758,-98.418535)">
    <path
       style="display:inline;fill:#ff4242;fill-opacity:1;stroke:none;stroke-width:3;stroke-linejoin:round;stroke-miterlimit:4;stroke-dasharray:none;stroke-opacity:1;paint-order:stroke markers fill"
       d="m 53.811733,144.12531 v -5.61516 l -3.729503,-0.0259 -3.729503,-0.0259 6.208751,-8.07951 6.208734,-8.07947 0.0259,5.59905 0.0259,5.59912 3.7344,0.0259 3.7344,0.0259 -6.1516,8.00235 c -3.38339,4.40121 -6.19093,8.04428 -6.239004,8.09554 -0.05149,0.0543 -0.08784,-2.23678 -0.08784,-5.52188 z"
       id="path86884" />
  </g>
  <g
     inkscape:groupmode="layer"
     id="layer3"
     inkscape:label="color overlay"
     style="display:none"
     sodipodi:insensitive="true"
     transform="translate(-2.6079758,-98.418535)">
    <text
       xml:space="preserve"
       style="font-style:normal;font-variant:normal;font-weight:bold;font-stretch:normal;font-size:48.5843px;line-height:1.25;font-family:'Encode Sans';-inkscape-font-specification:'Encode Sans Bold';display:inline;fill:#ffffff;fill-opacity:1;stroke:#ffffff;stroke-width:2;stroke-miterlimit:4;stroke-dasharray:none;stroke-opacity:1"
       x="0.49948004"
       y="153.23593"
       id="text6147"><tspan
         sodipodi:role="line"
         id="tspan6145"
         style="font-style:normal;font-variant:normal;font-weight:bold;font-stretch:normal;font-size:48.5843px;font-family:'Encode Sans';-inkscape-font-specification:'Encode Sans Bold';fill:#ffffff;fill-opacity:1;stroke:#ffffff;stroke-width:2;stroke-miterlimit:4;stroke-dasharray:none;stroke-opacity:1"
         x="0.49948004"
         y="153.23593">H   LD IT!</tspan></text>
    <path
       id="path86270"
       style="display:inline;fill:url(#linearGradient16048);fill-opacity:1;stroke:#000000;stroke-width:4.9;stroke-linejoin:round;stroke-miterlimit:4;stroke-dasharray:none;stroke-opacity:1;paint-order:stroke markers fill"
       d="m 50.529183,106.48197 v 1.73509 1.737 h 5.598499 0.686751 4.913659 v -1.737 -1.73509 h -5.60041 z m 5.245369,6.73995 c -1.97867,0.0299 -3.947129,0.31711 -5.839002,0.86278 -2.633724,0.75969 -4.782209,1.80352 -7.054906,3.42437 l -0.969671,0.69098 -1.830527,-1.82862 -1.830538,-1.82862 -1.740821,1.74082 -1.742727,1.74273 1.83435,1.83435 c 1.711179,1.71372 1.823195,1.84843 1.693098,2.02905 -0.987977,1.37093 -1.332189,1.88861 -1.838169,2.76964 -0.709964,1.23604 -1.268325,2.48231 -1.784721,3.97986 -1.294137,3.75303 -1.5385,8.10489 -0.677625,12.11512 0.497252,2.31645 1.798901,5.41802 3.132335,7.46531 3.616597,5.55273 9.500169,9.25375 16.148409,10.15669 1.369655,0.18616 4.199605,0.18653 5.617575,0.002 8.52277,-1.11016 15.58852,-6.71368 18.53249,-14.69963 2.60941,-7.07832 1.44786,-15.16891 -3.04835,-21.2487 l -0.55163,-0.74636 1.82671,-1.82862 1.82672,-1.82862 -1.74273,-1.74273 -1.74082,-1.74082 -1.82863,1.82672 -1.82862,1.82671 -0.72535,-0.53637 c -2.32186,-1.71412 -5.14798,-3.05092 -7.93294,-3.7527 -1.93456,-0.48753 -3.92524,-0.71532 -5.90391,-0.68525 z m 0.44666,4.95524 c 7.4806,0.007 14.12506,4.73492 16.63896,11.83644 1.71277,4.83839 1.17721,10.40826 -1.42778,14.83514 -2.89075,4.9125 -7.86458,8.08779 -13.57725,8.66785 v 0.002 c -0.95392,0.096 -2.44185,0.1134 -3.10752,0.038 -2.932377,-0.33429 -5.015929,-0.95491 -7.135075,-2.1283 -4.503977,-2.49394 -7.642274,-6.67888 -8.765183,-11.68564 -1.595029,-7.11171 1.347603,-14.49289 7.406118,-18.57259 2.940782,-1.98033 6.326962,-2.99642 9.96773,-2.99298 z"
       sodipodi:nodetypes="cccccccccccccccccccccsssccscccccccccccccssccccsccc" />
    <path
       style="fill:#ff4242;fill-opacity:1;stroke:#ff4242;stroke-width:1.13386;stroke-linejoin:round;stroke-miterlimit:4;stroke-dasharray:none;stroke-opacity:1;paint-order:stroke markers fill"
       d="m 753.30237,514.16673 -3.71913,-25.23419 0.0245,-24.59128 0.0245,-24.59128 h 18.96583 18.96582 l 0.0215,26.19855 0.0215,26.19856 -3.34565,23.62692 -3.34565,23.62691 H 768.96858 757.0215 Z"
       id="path25534"
       transform="scale(0.26458333)" />
    <path
       style="fill:#ff4242;fill-opacity:1;stroke:#ff4242;stroke-width:1.13386;stroke-linejoin:round;stroke-miterlimit:4;stroke-dasharray:none;stroke-opacity:1;paint-order:stroke markers fill"
       d="m 763.77628,583.79804 c -6.77684,-1.23487 -12.05799,-4.8693 -15.12695,-10.41022 -1.74315,-3.14719 -1.90988,-3.98268 -1.90706,-9.55634 0.003,-5.37151 0.20889,-6.49508 1.71059,-9.32219 3.0826,-5.80328 7.76435,-9.11855 14.98057,-10.6081 7.86408,-1.62327 15.85873,0.33944 21.17549,5.19865 4.6034,4.20725 6.40456,8.32577 6.44422,14.73535 0.0373,6.02228 -2.09951,10.87902 -6.48457,14.7389 -4.98205,4.38537 -13.56292,6.54127 -20.79229,5.22395 z"
       id="path25573"
       transform="scale(0.26458333)" />
  </g>
  <g
     inkscape:groupmode="layer"
     id="layer4"
     inkscape:label="color overlay 1"
     style="display:none"
     sodipodi:insensitive="true"
     transform="translate(-2.6079758,-98.418535)">
    <path
       style="display:inline;fill:#b3b3b3;fill-opacity:1;stroke:#000000;stroke-width:0.628766;stroke-linejoin:round;stroke-miterlimit:4;stroke-dasharray:none;stroke-opacity:1;paint-order:stroke markers fill"
       d="m 51.770189,158.01467 c -6.95986,-1.46226 -12.80386,-5.95494 -15.79467,-12.14246 -1.76879,-3.65934 -2.35208,-6.16001 -2.34303,-10.04489 0.0112,-4.79706 1.21606,-8.66168 3.98832,-12.79258 0.45237,-0.67406 0.82249,-1.27839 0.82249,-1.34296 0,-0.0646 -0.78204,-0.9121 -1.73786,-1.88342 l -1.73787,-1.76602 1.65184,-1.65184 1.65183,-1.65183 1.74744,1.74149 c 0.96109,0.95782 1.80385,1.74149 1.8728,1.74149 0.069,0 0.75657,-0.42693 1.52803,-0.94873 3.97501,-2.68861 7.91964,-3.89437 12.71451,-3.88648 4.87246,0.008 8.81297,1.23174 12.87952,3.99971 0.6751,0.45952 1.28617,0.8355 1.35792,0.8355 0.0718,0 0.91681,-0.78367 1.8779,-1.74149 l 1.74744,-1.74149 1.65546,1.65546 1.65546,1.65546 -1.74149,1.74744 c -0.95782,0.96109 -1.74149,1.80385 -1.74149,1.8728 0,0.069 0.42708,0.75657 0.94907,1.52803 1.75527,2.59415 2.94955,5.51021 3.57891,8.73852 0.43266,2.2194 0.39355,6.08026 -0.0846,8.35337 -0.93317,4.43599 -3.02871,8.342 -6.13892,11.44273 -3.2842,3.27417 -7.18249,5.364 -11.73726,6.29221 -2.27839,0.4643 -6.38684,0.45953 -8.62173,-0.01 z m 8.83117,-4.89383 c 10.87822,-2.92823 16.39248,-14.83199 11.55006,-24.9334 -4.88377,-10.1877 -17.72845,-13.25798 -26.84409,-6.41659 -5.72544,4.29702 -8.2736,12.0544 -6.25162,19.03185 1.82762,6.30671 6.92049,11.0722 13.33604,12.47877 2.00968,0.44061 6.28695,0.35692 8.20961,-0.16063 z"
       id="path14600-0" />
  </g>
  <g
     inkscape:groupmode="layer"
     id="layer5"
     inkscape:label="all"
     transform="translate(-2.6079758,-98.418535)"
     style="display:inline"
     sodipodi:insensitive="true">
    <path
       style="display:inline;fill:#ff4242;fill-opacity:1;stroke:none;stroke-width:2.32087;stroke-linejoin:round;stroke-miterlimit:4;stroke-dasharray:none;stroke-opacity:1;paint-order:stroke markers fill"
       d="m 42.125682,129.43564 v -4.34401 l -2.885226,-0.02 -2.885227,-0.02 4.803228,-6.25049 4.803215,-6.25046 0.02004,4.33155 0.02004,4.3316 2.889015,0.02 2.889016,0.02 -4.759016,6.19079 c -2.617466,3.40488 -4.789441,6.22324 -4.826632,6.26289 -0.03983,0.042 -0.06795,-1.73042 -0.06795,-4.27185 z"
       id="path86884-9" />
    <text
       xml:space="preserve"
       style="font-style:normal;font-variant:normal;font-weight:bold;font-stretch:normal;font-size:37.5859px;line-height:1.25;font-family:'Encode Sans';-inkscape-font-specification:'Encode Sans Bold';display:inline;fill:#ffffff;fill-opacity:1;stroke:#ffffff;stroke-width:1.54724;stroke-miterlimit:4;stroke-dasharray:none;stroke-opacity:1"
       x="0.88213348"
       y="136.48383"
       id="text6147-9"><tspan
         sodipodi:role="line"
         id="tspan6145-8"
         style="font-style:normal;font-variant:normal;font-weight:bold;font-stretch:normal;font-size:37.5859px;font-family:'Encode Sans';-inkscape-font-specification:'Encode Sans Bold';fill:#ffffff;fill-opacity:1;stroke:#ffffff;stroke-width:1.54724;stroke-miterlimit:4;stroke-dasharray:none;stroke-opacity:1"
         x="0.88213348"
         y="136.48383">H   LD IT</tspan></text>
    <text
       xml:space="preserve"
       style="font-style:normal;font-variant:normal;font-weight:bold;font-stretch:normal;font-size:37.5859px;line-height:1.25;font-family:'Encode Sans';-inkscape-font-specification:'Encode Sans Bold';display:inline;fill:#ff4242;fill-opacity:1;stroke:#ff4242;stroke-width:1.54724;stroke-miterlimit:4;stroke-dasharray:none;stroke-opacity:1"
       x="152.8773"
       y="136.4924"
       id="text6147-9-5"><tspan
         sodipodi:role="line"
         id="tspan6145-8-9"
         style="font-style:normal;font-variant:normal;font-weight:bold;font-stretch:normal;font-size:37.5859px;font-family:'Encode Sans';-inkscape-font-specification:'Encode Sans Bold';fill:#ff4242;fill-opacity:1;stroke:#ff4242;stroke-width:1.54724;stroke-miterlimit:4;stroke-dasharray:none;stroke-opacity:1"
         x="152.8773"
         y="136.4924">!</tspan></text>
    <path
       id="path86270-1"
       style="display:inline;fill:url(#linearGradient28587);fill-opacity:1;stroke:#000000;stroke-width:3.79075;stroke-linejoin:round;stroke-miterlimit:4;stroke-dasharray:none;stroke-opacity:1;paint-order:stroke markers fill"
       d="M 39.586228,100.31391 V 101.65622 103 h 4.331124 0.531286 3.801316 v -1.34378 -1.34231 h -4.332602 z m 4.057935,5.21418 c -1.530743,0.0231 -3.053587,0.24532 -4.517182,0.66747 -2.037508,0.58771 -3.699624,1.39524 -5.457833,2.64917 l -0.750159,0.53455 -1.416137,-1.41466 -1.416145,-1.41466 -1.346738,1.34674 -1.348212,1.34821 1.419094,1.4191 c 1.323806,1.32577 1.410464,1.42998 1.309818,1.56972 -0.764321,1.06058 -1.030611,1.46107 -1.422048,2.14265 -0.549244,0.95623 -0.981205,1.92037 -1.3807,3.07891 -1.001174,2.90343 -1.190218,6.27012 -0.524226,9.37253 0.384685,1.79205 1.39167,4.1915 2.423244,5.77533 2.79788,4.29571 7.349543,7.1589 12.49277,7.85744 1.059595,0.14402 3.248908,0.1443 4.345881,0.002 6.593405,-0.85885 12.059627,-5.19386 14.337148,-11.37197 2.018698,-5.47594 1.120097,-11.735 -2.358271,-16.43846 l -0.426754,-0.57741 1.413184,-1.41466 1.413191,-1.41466 -1.348214,-1.34821 -1.346738,-1.34674 -1.414669,1.41319 -1.414661,1.41319 -0.561147,-0.41495 c -1.796243,-1.32608 -3.982592,-2.36026 -6.137099,-2.90318 -1.496619,-0.37716 -3.036654,-0.55338 -4.567397,-0.53012 z m 0.345546,3.83348 c 5.787159,0.005 10.927462,3.66304 12.872271,9.15694 1.325037,3.74309 0.910716,8.05206 -1.104562,11.47679 -2.236349,3.80042 -6.084215,6.2569 -10.503664,6.70565 v 0.002 c -0.737974,0.0743 -1.88907,0.0877 -2.404047,0.0294 -2.268552,-0.25861 -3.880435,-0.73874 -5.519853,-1.6465 -3.484378,-1.92937 -5.912234,-5.16693 -6.780942,-9.04027 -1.23395,-5.50178 1.042536,-11.21202 5.729539,-14.36817 2.275054,-1.53203 4.894679,-2.3181 7.711258,-2.31544 z"
       sodipodi:nodetypes="cccccccccccccccccccccsssccscccccccccccccssccccsccc" />
    <path
       style="display:inline;fill:#b3b3b3;fill-opacity:1;stroke:#000000;stroke-width:0.486427;stroke-linejoin:round;stroke-miterlimit:4;stroke-dasharray:none;stroke-opacity:1;paint-order:stroke markers fill"
       d="m 40.546298,140.18076 c -5.384303,-1.13123 -9.905352,-4.60687 -12.219109,-9.39368 -1.368375,-2.83094 -1.819622,-4.76552 -1.81262,-7.77095 0.0087,-3.71111 0.940771,-6.70087 3.085453,-9.89662 0.349964,-0.52147 0.636297,-0.98899 0.636297,-1.03895 0,-0.05 -0.605004,-0.70562 -1.344448,-1.45705 l -1.344455,-1.36623 1.277901,-1.27791 1.277892,-1.27789 1.351859,1.34726 c 0.743521,0.74099 1.395498,1.34725 1.44884,1.34725 0.05338,0 0.585299,-0.33028 1.182118,-0.73396 3.075156,-2.07996 6.12681,-3.01277 9.836229,-3.00666 3.769444,0.006 6.81791,0.9529 9.963884,3.09426 0.522272,0.3555 0.99501,0.64636 1.050517,0.64636 0.05555,0 0.709265,-0.60626 1.452786,-1.34725 l 1.351858,-1.34726 1.280701,1.2807 1.280701,1.2807 -1.347256,1.35186 c -0.740991,0.74352 -1.347255,1.3955 -1.347255,1.44884 0,0.0534 0.330398,0.5853 0.734221,1.18212 1.357916,2.00689 2.281838,4.26282 2.768725,6.76031 0.334716,1.71698 0.304459,4.70383 -0.06545,6.46236 -0.721921,3.43178 -2.343078,6.45356 -4.749206,8.85235 -2.54073,2.53297 -5.556535,4.14971 -9.080206,4.86779 -1.762614,0.3592 -4.941002,0.35551 -6.669963,-0.008 z m 6.831991,-3.78597 c 8.415634,-2.26535 12.681588,-11.47436 8.935384,-19.28904 -3.778194,-7.88143 -13.715125,-10.25667 -20.767187,-4.96402 -4.429329,3.32427 -6.400642,9.32556 -4.836393,14.72347 1.413887,4.87901 5.353845,8.5657 10.317058,9.65385 1.554733,0.34087 4.863725,0.27612 6.351138,-0.12426 z"
       id="path14600-0-1" />
    <text
       xml:space="preserve"
       style="font-size:37.5859px;line-height:1.25;font-family:'Encode Sans Condensed Thin';-inkscape-font-specification:'Encode Sans Condensed Thin, ';stroke-width:0.264583"
       x="152.59845"
       y="181.53275"
       id="text31210"><tspan
         sodipodi:role="line"
         id="tspan31208"
         style="font-size:37.5859px;stroke-width:0.264583"
         x="152.59845"
         y="181.53275" /></text>
    <path
       style="fill:#ff4242;fill-opacity:1;stroke:#000000;stroke-width:3.175;stroke-linejoin:round;stroke-miterlimit:4;stroke-dasharray:none;stroke-opacity:1;paint-order:stroke markers fill"
       d="m 156.83664,137.27908 c -0.89913,-0.28756 -1.43439,-0.63019 -2.01512,-1.28994 -0.64663,-0.7346 -0.91308,-1.5469 -0.90181,-2.74924 0.0233,-2.48643 1.76963,-4.02942 4.56041,-4.02942 1.64172,0 2.70651,0.43911 3.64206,1.50195 0.64668,0.73467 0.92554,1.55772 0.92371,2.72626 -0.001,0.812 -0.0507,1.0168 -0.41926,1.73793 -0.53555,1.04785 -1.35948,1.74323 -2.47296,2.08715 -1.00505,0.31043 -2.37446,0.31675 -3.31703,0.0153 z"
       id="path42544" />
  </g>
</svg>
