<?xml version="1.0" encoding="UTF-8" standalone="no"?>
<svg
   width="30"
   height="30.000002"
   viewBox="0 0 30 30.000002"
   fill="none"
   version="1.1"
   id="svg834"
   sodipodi:docname="nochange.svg"
   inkscape:version="1.1.1 (3bf5ae0d25, 2021-09-20)"
   xmlns:inkscape="http://www.inkscape.org/namespaces/inkscape"
   xmlns:sodipodi="http://sodipodi.sourceforge.net/DTD/sodipodi-0.dtd"
   xmlns="http://www.w3.org/2000/svg"
   xmlns:svg="http://www.w3.org/2000/svg">
  <defs
     id="defs838" />
  <sodipodi:namedview
     id="namedview836"
     pagecolor="#ffffff"
     bordercolor="#999999"
     borderopacity="1"
     inkscape:pageshadow="0"
     inkscape:pageopacity="0"
     inkscape:pagecheckerboard="0"
     showgrid="false"
     fit-margin-top="0"
     fit-margin-left="0"
     fit-margin-right="0"
     fit-margin-bottom="0"
     inkscape:zoom="21.372301"
     inkscape:cx="14.996045"
     inkscape:cy="14.996045"
     inkscape:window-width="2560"
     inkscape:window-height="1417"
     inkscape:window-x="1912"
     inkscape:window-y="-8"
     inkscape:window-maximized="1"
     inkscape:current-layer="svg834" />
  <path
     fill-rule="evenodd"
     clip-rule="evenodd"
     d="M 30,14.999999 C 30,23.284274 23.284275,30.000002 14.999999,30.000002 6.715725,30.000002 0,23.284274 0,14.999999 0,6.7157265 6.715725,0 14.999999,0 23.284275,0 30,6.7157265 30,14.999999 Z m -20.8336515,5.83365 c -0.292875,-0.29286 -0.292875,-0.7677 0,-1.06065 L 13.939348,15.000074 9.1663485,10.227075 c -0.292875,-0.2929503 -0.292875,-0.767775 0,-1.060725 0.292875,-0.292875 0.767775,-0.292875 1.0606505,0 l 4.773,4.773 4.772998,-4.7729253 c 0.29289,-0.292875 0.767778,-0.292875 1.060653,0 0.29289,0.292875 0.29289,0.767775 0,1.0606503 l -4.773,4.772999 4.773,4.772925 c 0.29289,0.29289 0.29289,0.767775 0,1.06065 -0.29295,0.29289 -0.767775,0.29289 -1.060653,0 l -4.772998,-4.772925 -4.772926,4.772925 c -0.2929495,0.29295 -0.7677745,0.29295 -1.0607245,0 z"
     fill="#333333"
     id="path832"
     style="fill:#818181;fill-opacity:1;stroke-width:0.750003" />
</svg>
