<?xml version="1.0" encoding="UTF-8" standalone="no"?>
<!-- Generator: Adobe Illustrator 16.0.0, SVG Export Plug-In . SVG Version: 6.00 Build 0)  -->

<svg
   version="1.1"
   id="Capa_1"
   x="0px"
   y="0px"
   width="45.532px"
   height="45.532px"
   viewBox="0 0 45.532 45.532"
   style="enable-background:new 0 0 45.532 45.532;"
   xml:space="preserve"
   sodipodi:docname="profileiconyellow.svg"
   inkscape:version="1.1.1 (3bf5ae0d25, 2021-09-20)"
   xmlns:inkscape="http://www.inkscape.org/namespaces/inkscape"
   xmlns:sodipodi="http://sodipodi.sourceforge.net/DTD/sodipodi-0.dtd"
   xmlns="http://www.w3.org/2000/svg"
   xmlns:svg="http://www.w3.org/2000/svg"><defs
   id="defs3312" /><sodipodi:namedview
   id="namedview3310"
   pagecolor="#ffffff"
   bordercolor="#999999"
   borderopacity="1"
   inkscape:pageshadow="0"
   inkscape:pageopacity="0"
   inkscape:pagecheckerboard="false"
   showgrid="false"
   inkscape:zoom="19.173328"
   inkscape:cx="22.818157"
   inkscape:cy="22.766001"
   inkscape:window-width="2560"
   inkscape:window-height="1417"
   inkscape:window-x="1912"
   inkscape:window-y="-8"
   inkscape:window-maximized="1"
   inkscape:current-layer="g3277" />
<g
   id="g3277"
   style="fill:#a89600;fill-opacity:1">
	<path
   d="M22.766,0.001C10.194,0.001,0,10.193,0,22.766s10.193,22.765,22.766,22.765c12.574,0,22.766-10.192,22.766-22.765   S35.34,0.001,22.766,0.001z M22.766,6.808c4.16,0,7.531,3.372,7.531,7.53c0,4.159-3.371,7.53-7.531,7.53   c-4.158,0-7.529-3.371-7.529-7.53C15.237,10.18,18.608,6.808,22.766,6.808z M22.761,39.579c-4.149,0-7.949-1.511-10.88-4.012   c-0.714-0.609-1.126-1.502-1.126-2.439c0-4.217,3.413-7.592,7.631-7.592h8.762c4.219,0,7.619,3.375,7.619,7.592   c0,0.938-0.41,1.829-1.125,2.438C30.712,38.068,26.911,39.579,22.761,39.579z"
   id="path3275"
   style="fill:#ffff00;fill-opacity:1" />
</g>
<g
   id="g3279">
</g>
<g
   id="g3281">
</g>
<g
   id="g3283">
</g>
<g
   id="g3285">
</g>
<g
   id="g3287">
</g>
<g
   id="g3289">
</g>
<g
   id="g3291">
</g>
<g
   id="g3293">
</g>
<g
   id="g3295">
</g>
<g
   id="g3297">
</g>
<g
   id="g3299">
</g>
<g
   id="g3301">
</g>
<g
   id="g3303">
</g>
<g
   id="g3305">
</g>
<g
   id="g3307">
</g>
</svg>
