<?xml version="1.0" encoding="UTF-8" standalone="no"?>
<!-- Generator: Adobe Illustrator 18.1.1, SVG Export Plug-In . SVG Version: 6.00 Build 0)  -->

<svg
   version="1.1"
   id="Capa_1"
   x="0px"
   y="0px"
   viewBox="0 0 26.410515 23.375028"
   xml:space="preserve"
   sodipodi:docname="simpleTimerColor.svg"
   inkscape:version="1.1.1 (3bf5ae0d25, 2021-09-20)"
   width="23.639471"
   height="23.375025"
   xmlns:inkscape="http://www.inkscape.org/namespaces/inkscape"
   xmlns:sodipodi="http://sodipodi.sourceforge.net/DTD/sodipodi-0.dtd"
   xmlns="http://www.w3.org/2000/svg"
   xmlns:svg="http://www.w3.org/2000/svg"><defs
   id="defs51299" /><sodipodi:namedview
   id="namedview51297"
   pagecolor="#ffffff"
   bordercolor="#999999"
   borderopacity="1"
   inkscape:pageshadow="0"
   inkscape:pageopacity="0"
   inkscape:pagecheckerboard="true"
   showgrid="false"
   inkscape:zoom="22.627417"
   inkscape:cx="11.446291"
   inkscape:cy="12.683728"
   inkscape:window-width="1559"
   inkscape:window-height="1280"
   inkscape:window-x="2566"
   inkscape:window-y="64"
   inkscape:window-maximized="0"
   inkscape:current-layer="g51264"
   viewbox-width="28.50314"
   fit-margin-top="0"
   fit-margin-left="0"
   fit-margin-right="0"
   fit-margin-bottom="0" />
<g
   id="g51264"
   transform="translate(0.42903125,-1.5058749)">
	<g
   id="g51254"
   style="fill:#ff2065;fill-opacity:1;stroke:#000000;stroke-width:0.407692;stroke-miterlimit:4;stroke-dasharray:none;stroke-opacity:1"
   inkscape:transform-center-x="4.0077055"
   inkscape:transform-center-y="-3.944429"
   transform="rotate(-0.00942313,13.185428,13.123977)">
		<path
   id="path51252"
   style="fill:#ff2065;fill-opacity:1;stroke:#000000;stroke-width:0.407692;stroke-miterlimit:4;stroke-dasharray:none;stroke-opacity:1"
   d="m 3.3867188,3.3261719 c -0.00993,7.601e-4 -0.0165,0.00283 -0.021484,0.00781 -0.3105296,0.3105296 7.5523042,10.2474941 7.9765622,10.7832041 8.61e-4,0.0011 0.009,0.01266 0.0098,0.01367 0.359644,0.524535 0.962563,0.868523 1.646485,0.869142 1.104,0 1.999953,-0.894095 2.001953,-1.996094 0.0013,-0.69125 -0.347588,-1.300742 -0.878906,-1.660156 -0.0019,-0.0013 -0.0039,-0.0026 -0.0059,-0.0039 C 13.58109,10.913986 3.9951147,3.2795965 3.3867188,3.3261719 Z" />
	</g>
	<g
   id="g51258"
   style="fill:#ff2065;fill-opacity:1">
		
	</g>
	
	<path
   style="fill:#45ffd1;fill-opacity:1;stroke:#000000;stroke-width:0.407692;stroke-miterlimit:4;stroke-dasharray:none;stroke-opacity:1"
   d="m 14.223516,1.1364629 c -0.388204,1.2862181 0.834695,1.7098024 1.195298,1.8043262 3.577425,0.9379488 6.55196,3.7351217 7.508815,7.5705669 1.396674,5.59841 -2.020785,11.287826 -7.619196,12.684502 C 9.7100222,24.592532 4.0186652,21.175556 2.6219905,15.577145 2.3010216,14.290578 2.2395682,12.999046 2.3978275,11.757826 2.4194925,11.596793 2.7285452,10.484919 1.4767786,10.07369 0.6193107,9.7928971 0.02475032,10.499838 -0.03800506,10.867976 -0.33377453,12.586681 -0.287611,14.391169 0.16140663,16.191004 1.899383,23.157484 8.9550844,27.39563 15.921563,25.657654 22.888043,23.919677 27.126189,16.863976 25.388213,9.8974965 24.15057,4.936548 20.210879,1.3690918 15.531897,0.35347439 15.433681,0.33159789 14.493902,0.23727392 14.223516,1.1364629 Z"
   id="path51262" />
</g>
<g
   id="g51266"
   transform="translate(0.42903125,-1.5058749)">
</g>
<g
   id="g51268"
   transform="translate(0.42903125,-1.5058749)">
</g>
<g
   id="g51270"
   transform="translate(0.42903125,-1.5058749)">
</g>
<g
   id="g51272"
   transform="translate(0.42903125,-1.5058749)">
</g>
<g
   id="g51274"
   transform="translate(0.42903125,-1.5058749)">
</g>
<g
   id="g51276"
   transform="translate(0.42903125,-1.5058749)">
</g>
<g
   id="g51278"
   transform="translate(0.42903125,-1.5058749)">
</g>
<g
   id="g51280"
   transform="translate(0.42903125,-1.5058749)">
</g>
<g
   id="g51282"
   transform="translate(0.42903125,-1.5058749)">
</g>
<g
   id="g51284"
   transform="translate(0.42903125,-1.5058749)">
</g>
<g
   id="g51286"
   transform="translate(0.42903125,-1.5058749)">
</g>
<g
   id="g51288"
   transform="translate(0.42903125,-1.5058749)">
</g>
<g
   id="g51290"
   transform="translate(0.42903125,-1.5058749)">
</g>
<g
   id="g51292"
   transform="translate(0.42903125,-1.5058749)">
</g>
<g
   id="g51294"
   transform="translate(0.42903125,-1.5058749)">
</g>
</svg>
