<?xml version="1.0" encoding="UTF-8" standalone="no"?>
<!-- Generator: Adobe Illustrator 18.1.1, SVG Export Plug-In . SVG Version: 6.00 Build 0)  -->

<svg
   version="1.1"
   id="Capa_1"
   x="0px"
   y="0px"
   viewBox="0 0 26.001 26.001"
   style="enable-background:new 0 0 26.001 26.001;"
   xml:space="preserve"
   sodipodi:docname="simpleTimerColor.svg"
   inkscape:version="1.1.1 (3bf5ae0d25, 2021-09-20)"
   xmlns:inkscape="http://www.inkscape.org/namespaces/inkscape"
   xmlns:sodipodi="http://sodipodi.sourceforge.net/DTD/sodipodi-0.dtd"
   xmlns="http://www.w3.org/2000/svg"
   xmlns:svg="http://www.w3.org/2000/svg"><defs
   id="defs51299" /><sodipodi:namedview
   id="namedview51297"
   pagecolor="#ffffff"
   bordercolor="#999999"
   borderopacity="1"
   inkscape:pageshadow="0"
   inkscape:pageopacity="0"
   inkscape:pagecheckerboard="true"
   showgrid="false"
   inkscape:zoom="22.941425"
   inkscape:cx="13.011397"
   inkscape:cy="13.011397"
   inkscape:window-width="2560"
   inkscape:window-height="1417"
   inkscape:window-x="1912"
   inkscape:window-y="-8"
   inkscape:window-maximized="1"
   inkscape:current-layer="g51264" />
<g
   id="g51264">
	<g
   id="g51254"
   style="fill:#ff2065;fill-opacity:1">
		<path
   style="fill:#ff2065;fill-opacity:1"
   d="M11.002,12.998C11,14.102,11.894,14.999,12.998,15c1.104,0,2-0.895,2.002-1.997    c0.002-1.106-0.893-2.001-1.996-2.001C11.898,11,11.002,11.892,11.002,12.998z"
   id="path51252" />
	</g>
	<g
   id="g51258"
   style="fill:#ff2065;fill-opacity:1">
		<path
   style="fill:#ff2065;fill-opacity:1"
   d="M13.573,13.539c0,0,0.001-0.002,0.001-0.004c0.39-0.39,1.101-1.715,0.72-2.053    c0,0-10.61-8.467-10.929-8.148s8.116,10.96,8.116,10.96C11.822,14.673,13.184,13.927,13.573,13.539z"
   id="path51256" />
	</g>
	<circle
   style="fill:#45ffd1;stroke:none;stroke-opacity:1;fill-opacity:1"
   cx="13"
   cy="2.001"
   r="2.001"
   id="circle51260" />
	<path
   style="fill:#45ffd1;fill-opacity:1"
   d="M17.288,1.798c-0.688,1.154,0.396,1.861,0.723,2.04c3.244,1.776,5.453,5.21,5.453,9.163   c0,5.77-4.693,10.463-10.463,10.463S2.536,18.771,2.536,13.001c0-1.326,0.253-2.594,0.707-3.76C3.303,9.09,3.872,8.086,2.757,7.384   c-0.764-0.48-1.512,0.062-1.662,0.404C0.392,9.384,0,11.146,0,13.001c0,7.18,5.82,13,13,13s13-5.82,13-13   c0-5.113-2.959-9.528-7.253-11.646C18.657,1.31,17.768,0.991,17.288,1.798z"
   id="path51262" />
</g>
<g
   id="g51266">
</g>
<g
   id="g51268">
</g>
<g
   id="g51270">
</g>
<g
   id="g51272">
</g>
<g
   id="g51274">
</g>
<g
   id="g51276">
</g>
<g
   id="g51278">
</g>
<g
   id="g51280">
</g>
<g
   id="g51282">
</g>
<g
   id="g51284">
</g>
<g
   id="g51286">
</g>
<g
   id="g51288">
</g>
<g
   id="g51290">
</g>
<g
   id="g51292">
</g>
<g
   id="g51294">
</g>
</svg>
