<?xml version="1.0" encoding="UTF-8" standalone="no"?>
<svg
   width="151.18111"
   height="169.78435"
   viewBox="0 0 151.18111 169.78434"
   id="Flat"
   version="1.1"
   sodipodi:docname="timerplus.svg"
   inkscape:version="1.1.1 (3bf5ae0d25, 2021-09-20)"
   xmlns:inkscape="http://www.inkscape.org/namespaces/inkscape"
   xmlns:sodipodi="http://sodipodi.sourceforge.net/DTD/sodipodi-0.dtd"
   xmlns="http://www.w3.org/2000/svg"
   xmlns:svg="http://www.w3.org/2000/svg">
  <defs
     id="defs1430" />
  <sodipodi:namedview
     id="namedview1428"
     pagecolor="#ffffff"
     bordercolor="#999999"
     borderopacity="1"
     inkscape:pageshadow="0"
     inkscape:pageopacity="0"
     inkscape:pagecheckerboard="true"
     showgrid="false"
     lock-margins="false"
     fit-margin-top="0"
     fit-margin-left="0"
     fit-margin-right="0"
     fit-margin-bottom="0"
     inkscape:zoom="4.7226562"
     inkscape:cx="108.30769"
     inkscape:cy="93.909016"
     inkscape:window-width="2560"
     inkscape:window-height="1417"
     inkscape:window-x="1912"
     inkscape:window-y="-8"
     inkscape:window-maximized="1"
     inkscape:current-layer="Flat"
     inkscape:snap-object-midpoints="true" />
  <path
     d="M 48.124466,6.0155573 A 6.0156174,6.0156174 0 0 1 54.140023,0 h 36.093345 a 6.0155573,6.0155573 0 0 1 0,12.031114 H 54.140023 A 6.0156174,6.0156174 0 0 1 48.124466,6.0155573 Z M 144.37337,96.248915 A 72.186687,72.186687 0 1 1 72.186694,24.062229 72.268454,72.268454 0 0 1 144.37337,96.248915 Z M 106.21585,62.219751 a 6.0160084,6.0160084 0 0 0 -8.507499,0 l -29.775608,29.77561 a 6.0156963,6.0156963 0 0 0 8.507845,8.507109 L 106.21582,70.726855 a 6.0155573,6.0155573 0 0 0 3e-5,-8.507104 z"
     id="path1425"
     style="fill:#ffffff;fill-opacity:1;stroke-width:0.751945" />
  <path
     id="rect1768"
     style="fill:#ffffff;fill-opacity:1;stroke:#000000;stroke-width:13.6469;stroke-linejoin:round;stroke-miterlimit:4;stroke-dasharray:none;stroke-opacity:1;paint-order:stroke markers fill"
     d="m 116.85751,108.80927 c -3.17932,0 -5.73914,2.55982 -5.73914,5.73914 v 15.1732 H 95.945162 c -3.179317,0 -5.739142,2.55982 -5.739142,5.73914 v 0.84866 c 0,3.17932 2.559825,5.73915 5.739142,5.73915 h 15.173208 v 15.17506 c 0,3.17932 2.55982,5.73727 5.73914,5.73727 h 0.84866 c 3.17931,0 5.73914,-2.55795 5.73914,-5.73727 v -15.17506 h 15.17507 c 3.17931,0 5.73727,-2.55983 5.73727,-5.73915 v -0.84866 c 0,-3.17932 -2.55796,-5.73914 -5.73727,-5.73914 h -15.17507 v -15.1732 c 0,-3.17932 -2.55983,-5.73914 -5.73914,-5.73914 z" />
</svg>
