<?xml version="1.0" encoding="UTF-8" standalone="no"?>
<!-- Created with Inkscape (http://www.inkscape.org/) -->

<svg
   width="35.314663mm"
   height="40.393959mm"
   viewBox="0 0 35.314663 40.393959"
   version="1.1"
   id="svg43861"
   inkscape:version="1.1.1 (3bf5ae0d25, 2021-09-20)"
   sodipodi:docname="flash-timer.svg"
   inkscape:export-filename="E:\MyDocuments\BreathHoldTracker\public\images\greyredicon.png"
   inkscape:export-xdpi="39.189999"
   inkscape:export-ydpi="39.189999"
   xmlns:inkscape="http://www.inkscape.org/namespaces/inkscape"
   xmlns:sodipodi="http://sodipodi.sourceforge.net/DTD/sodipodi-0.dtd"
   xmlns="http://www.w3.org/2000/svg"
   xmlns:svg="http://www.w3.org/2000/svg">
  <sodipodi:namedview
     id="namedview43863"
     pagecolor="#ffffff"
     bordercolor="#999999"
     borderopacity="1"
     inkscape:pageshadow="0"
     inkscape:pageopacity="0"
     inkscape:pagecheckerboard="true"
     inkscape:document-units="mm"
     showgrid="false"
     fit-margin-top="0"
     fit-margin-left="0"
     fit-margin-right="0"
     fit-margin-bottom="0"
     inkscape:zoom="2.1997092"
     inkscape:cx="57.052996"
     inkscape:cy="91.148412"
     inkscape:window-width="2560"
     inkscape:window-height="1417"
     inkscape:window-x="1912"
     inkscape:window-y="-8"
     inkscape:window-maximized="1"
     inkscape:current-layer="layer1"
     inkscape:snap-object-midpoints="true" />
  <defs
     id="defs43858">
    <linearGradient
       id="linearGradient16056"
       inkscape:swatch="solid">
      <stop
         style="stop-color:#ff4242;stop-opacity:1;"
         offset="0"
         id="stop16054" />
    </linearGradient>
  </defs>
  <g
     inkscape:label="Layer 1"
     inkscape:groupmode="layer"
     id="layer1"
     transform="translate(-89.868937,-124.4518)">
    <path
       style="fill:#b3b3b3;fill-opacity:1;stroke:#b3b3b3;stroke-width:1.51181;stroke-linejoin:round;stroke-miterlimit:4;stroke-dasharray:none;stroke-opacity:1;paint-order:stroke markers fill"
       d="M 65.255296,158.7698 C 53.679884,157.28101 41.291739,151.98942 32.167614,144.63639 28.755196,141.88637 23.436193,136.53131 21.170175,133.56441 14.685399,125.0739 10.05243,114.48483 8.1606019,103.82986 7.4218026,99.66886 7.3120861,87.841389 7.9734912,83.659257 9.5789282,73.507912 13.386001,63.931806 19.159272,55.52314 c 1.308005,-1.905085 2.37819,-3.623059 2.37819,-3.817721 0,-0.194662 -2.310835,-2.691667 -5.13519,-5.548901 l -5.13519,-5.194971 4.974581,-4.966814 4.974581,-4.966815 5.272466,5.265202 5.272466,5.265203 4.302587,-2.870522 c 8.680926,-5.791581 16.463009,-8.954274 26.47681,-10.76036 4.689532,-0.845803 14.883222,-1.015741 19.75182,-0.329281 10.542733,1.486499 21.311187,5.874062 30.261647,12.329987 1.17389,0.846728 2.25721,1.539504 2.40736,1.539504 0.15015,0 2.62576,-2.349518 5.50136,-5.221151 l 5.22835,-5.221152 4.89853,4.898528 4.89853,4.898528 -5.22115,5.228355 c -2.87164,2.875596 -5.22116,5.348899 -5.22116,5.496231 0,0.147332 0.84025,1.447626 1.86722,2.889544 7.12328,10.001454 11.03923,20.420571 12.26427,32.631374 1.38851,13.840312 -2.07911,28.779042 -9.40929,40.535732 -3.97042,6.36806 -10.62415,13.75259 -16.13384,17.90585 -9.57951,7.22116 -21.302437,11.9677 -32.788372,13.2758 -3.366415,0.3834 -12.560192,0.37426 -15.590552,-0.0155 z m 18.483643,-14.7446 c 10.638723,-2.29474 18.850301,-6.74636 26.366501,-14.29369 8.77869,-8.81503 13.49274,-18.67077 14.92584,-31.205656 C 127.5659,76.35627 114.66985,54.190728 94.186216,45.509829 81.927253,40.314519 69.245423,39.817523 56.539928,44.034488 39.37314,49.732159 26.388849,64.509017 22.499367,82.774575 c -0.982878,4.615736 -1.220174,12.925368 -0.507315,17.765115 2.332547,15.8361 11.437294,29.3389 25.31059,37.53688 5.218035,3.08343 10.593249,5.00528 17.470472,6.24638 4.862783,0.87756 14.196245,0.73103 18.965825,-0.29775 z"
       id="path1285"
       transform="matrix(0.26458333,0,0,0.26458333,88.079828,122.55642)" />
    <path
       id="rect1155"
       style="fill:#ff4242;fill-opacity:1;stroke:#ff4242;stroke-width:2.13614;stroke-linejoin:round;stroke-opacity:1;paint-order:stroke markers fill"
       d="M 71.599609 52.480469 L 61.667969 52.611328 L 61.755859 81.005859 L 33.259766 81.09375 L 33.392578 91.025391 L 61.785156 90.9375 L 61.873047 119.43359 L 71.804688 119.30078 L 71.716797 90.908203 L 100.21289 90.820312 L 100.08008 80.888672 L 71.6875 80.976562 L 71.599609 52.480469 z "
       transform="matrix(0.26458333,0,0,0.26458333,89.868937,124.4518)" />
    <path
       style="fill:#ff4242;stroke:#b3b3b3;stroke-width:0.68787403;stroke-linejoin:round;paint-order:stroke markers fill;fill-opacity:1;stroke-miterlimit:4;stroke-dasharray:none;stroke-opacity:1"
       d="M 50.461216,5.000661 V 0 h 16.138496 16.138497 v 5.000661 5.000661 H 66.599712 50.461216 Z"
       id="path1101"
       transform="matrix(0.26458333,0,0,0.26458333,89.868937,124.4518)" />
  </g>
</svg>
