<?xml version="1.0" encoding="UTF-8" standalone="no"?>
<svg
   width="170.02644"
   height="188.62968"
   viewBox="0 0 170.02645 188.62968"
   id="Flat"
   version="1.1"
   sodipodi:docname="timerplus.svg"
   inkscape:version="1.1.1 (3bf5ae0d25, 2021-09-20)"
   xmlns:inkscape="http://www.inkscape.org/namespaces/inkscape"
   xmlns:sodipodi="http://sodipodi.sourceforge.net/DTD/sodipodi-0.dtd"
   xmlns="http://www.w3.org/2000/svg"
   xmlns:svg="http://www.w3.org/2000/svg">
  <defs
     id="defs1430" />
  <sodipodi:namedview
     id="namedview1428"
     pagecolor="#ffffff"
     bordercolor="#999999"
     borderopacity="1"
     inkscape:pageshadow="0"
     inkscape:pageopacity="0"
     inkscape:pagecheckerboard="true"
     showgrid="false"
     lock-margins="false"
     fit-margin-top="0"
     fit-margin-left="0"
     fit-margin-right="0"
     fit-margin-bottom="0"
     inkscape:zoom="4.7226562"
     inkscape:cx="108.30769"
     inkscape:cy="93.909017"
     inkscape:window-width="2560"
     inkscape:window-height="1417"
     inkscape:window-x="1912"
     inkscape:window-y="-8"
     inkscape:window-maximized="1"
     inkscape:current-layer="Flat"
     inkscape:snap-object-midpoints="true" />
  <path
     d="M 48.12447,6.0155573 A 6.0156174,6.0156174 0 0 1 54.140027,0 h 36.093345 a 6.0155573,6.0155573 0 0 1 0,12.031114 H 54.140027 A 6.0156174,6.0156174 0 0 1 48.12447,6.0155573 Z m 96.2489,90.2333577 A 72.186687,72.186687 0 1 1 72.186698,24.062229 72.268454,72.268454 0 0 1 144.37337,96.248915 Z M 106.21585,62.219751 a 6.0160084,6.0160084 0 0 0 -8.507495,0 l -29.775608,29.77561 a 6.0156963,6.0156963 0 0 0 8.507845,8.507109 L 106.21582,70.726855 a 6.0155573,6.0155573 0 0 0 3e-5,-8.507104 z"
     id="path1425"
     style="fill:#ffffff;fill-opacity:1;stroke-width:0.751945" />
  <path
     id="rect1768"
     style="fill:#ff4242;fill-opacity:1;stroke:#000000;stroke-width:18.591;stroke-linejoin:round;stroke-miterlimit:4;stroke-dasharray:none;stroke-opacity:1;paint-order:stroke markers fill"
     d="m 123.26789,105.56419 c -4.33114,0 -7.81835,3.48721 -7.81835,7.81835 v 20.67024 H 94.779294 c -4.331139,0 -7.818352,3.48721 -7.818352,7.81835 v 1.15612 c 0,4.33114 3.487213,7.81836 7.818352,7.81836 h 20.670246 v 20.67277 c 0,4.33114 3.48721,7.8158 7.81835,7.8158 h 1.15612 c 4.33113,0 7.81835,-3.48466 7.81835,-7.8158 v -20.67277 h 20.67278 c 4.33113,0 7.8158,-3.48722 7.8158,-7.81836 v -1.15612 c 0,-4.33114 -3.48467,-7.81835 -7.8158,-7.81835 h -20.67278 v -20.67024 c 0,-4.33114 -3.48722,-7.81835 -7.81835,-7.81835 z" />
</svg>
